<svg width="40" height="33" viewBox="0 0 40 33" fill="none" xmlns="http://www.w3.org/2000/svg">
<path fill-rule="evenodd" clip-rule="evenodd" d="M4.70571 5.47972L0.882851 13.3083H9.80856V3.07401H8.55713C7.75427 3.07399 6.96755 3.2995 6.28661 3.72484C5.60567 4.15017 5.0579 4.75823 4.70571 5.47972ZM16.6857 0.142578C15.3543 0.142578 14.1629 0.75115 13.3771 1.70829V15.094C13.3771 16.0797 12.5771 16.8797 11.5914 16.8797H0.579994V22.8254C0.579994 23.9621 1.03152 25.0522 1.83525 25.8559C2.63898 26.6596 3.72906 27.1112 4.86571 27.1112H5.33999V27.2826C5.34755 28.6828 5.89698 30.0257 6.87306 31.0296C7.84915 32.0335 9.17605 32.6205 10.5755 32.6675C11.9749 32.7144 13.3382 32.2176 14.3793 31.2813C15.4205 30.3451 16.0587 29.042 16.16 27.6454H23.4571C23.5465 29.0184 24.1548 30.3059 25.1588 31.2466C26.1627 32.1874 27.487 32.7109 28.8629 32.7109C30.2387 32.7109 31.563 32.1874 32.5669 31.2466C33.5709 30.3059 34.1792 29.0184 34.2686 27.6454H35.1371C36.2738 27.6454 37.3639 27.1939 38.1676 26.3902C38.9713 25.5865 39.4229 24.4964 39.4229 23.3597V4.42829C39.4229 3.29165 38.9713 2.20156 38.1676 1.39783C37.3639 0.594108 36.2738 0.142578 35.1371 0.142578H16.6857ZM25.9143 6.57115C24.9286 6.57115 24.1286 7.37115 24.1286 8.35686V11.214H21.2714C20.7978 11.214 20.3436 11.4021 20.0087 11.737C19.6738 12.0719 19.4857 12.5261 19.4857 12.9997C19.4857 13.4733 19.6738 13.9275 20.0087 14.2624C20.3436 14.5973 20.7978 14.7854 21.2714 14.7854H24.1286V17.6426C24.1286 18.1162 24.3167 18.5704 24.6516 18.9053C24.9865 19.2402 25.4407 19.4283 25.9143 19.4283C26.3879 19.4283 26.8421 19.2402 27.177 18.9053C27.5119 18.5704 27.7 18.1162 27.7 17.6426V14.7854H30.5571C31.0307 14.7854 31.4849 14.5973 31.8198 14.2624C32.1547 13.9275 32.3429 13.4733 32.3429 12.9997C32.3429 12.5261 32.1547 12.0719 31.8198 11.737C31.4849 11.4021 31.0307 11.214 30.5571 11.214H27.7V8.35686C27.7 7.37115 26.9 6.57115 25.9143 6.57115Z" fill="white"/>
</svg>
