<svg width="66" height="65" viewBox="0 0 66 65" fill="none" xmlns="http://www.w3.org/2000/svg">
<g clip-path="url(#clip0_3_361)">
<path d="M64.7442 44.9707C65.0801 45.1387 65.2481 45.4116 65.2481 45.7895C65.2481 46.1674 65.0801 46.4404 64.7442 46.6083L59.3275 50.0095L59.4535 56.308C59.4535 56.4759 59.4115 56.6439 59.3275 56.8118C59.2436 56.9798 59.1176 57.1058 58.9496 57.1897C58.7817 57.2737 58.6137 57.3157 58.4458 57.3157C58.2778 57.3157 58.1518 57.2737 58.0678 57.1897L47.6124 51.5211C43.8333 56.14 39.1725 59.5412 33.6299 61.7246C33.4619 61.8086 33.3359 61.8506 33.252 61.8506C33.168 61.8506 33.042 61.8086 32.874 61.7246C27.2474 59.5412 22.5446 56.056 18.7655 51.2692L7.93219 57.1897C7.84821 57.2737 7.72224 57.3157 7.55428 57.3157C7.38632 57.3157 7.21836 57.2737 7.0504 57.1897C6.71449 57.0218 6.54653 56.7278 6.54653 56.308L6.6725 50.0095L1.25583 46.6083C0.919912 46.4404 0.751953 46.1674 0.751953 45.7895C0.751953 45.4116 0.919912 45.1387 1.25583 44.9707L7.0504 41.8215L5.16087 31.1142C5.16087 30.7782 5.24485 30.5053 5.41281 30.2954C5.58076 30.0854 5.8327 29.9804 6.16862 29.9804H11.2074C11.2074 29.9804 11.2074 29.9384 11.2074 29.8545V15.7459C11.2074 15.41 11.3753 15.1581 11.7113 14.9901L32.7481 3.52694C33.084 3.35898 33.4199 3.35898 33.7558 3.52694L54.7927 14.9901C55.1286 15.1581 55.2965 15.41 55.2965 15.7459V29.8545C55.2965 29.9384 55.2965 29.9804 55.2965 29.9804H59.4535C59.7894 29.9804 60.0624 30.0854 60.2723 30.2954C60.4823 30.5053 60.5452 30.7782 60.4613 31.1142L58.6977 41.5696L64.7442 44.9707ZM51.8954 15.494V29.9804H53.407C53.407 29.9804 53.407 29.9384 53.407 29.8545V16.3758L51.8954 15.494ZM17.002 14.2343V29.9804H49.8799V14.4862L33.252 5.54245L17.002 14.2343ZM13.0969 16.3758V29.8545C13.0969 29.9384 13.0969 29.9804 13.0969 29.9804H15.1124V15.2421L13.0969 16.3758ZM58.3198 31.87H7.30234L9.56978 45.4746H56.0523L58.3198 31.87ZM8.56203 54.6704L17.5058 49.7576C17.002 49.0017 16.4981 48.2039 15.9942 47.3642H8.81397C8.22611 47.3642 7.8902 47.1122 7.80622 46.6083L7.30234 43.837L3.64924 45.8525L8.18412 48.6238C8.43606 48.7918 8.56203 49.0437 8.56203 49.3797V54.6704ZM33.252 59.8351C39.5504 57.2317 44.5472 53.0747 48.2423 47.3642H18.2616C21.9567 53.0747 26.9535 57.2317 33.252 59.8351ZM57.8159 48.6238L62.3508 45.8525L58.3198 43.5851L57.8159 46.6083C57.7319 47.1122 57.438 47.3642 56.9341 47.3642H50.5097C50.0058 48.2879 49.46 49.1277 48.8721 49.8835L57.438 54.6704V49.3797C57.438 49.0437 57.564 48.7918 57.8159 48.6238ZM42.8256 15.62C43.4974 15.62 44.0853 15.8719 44.5892 16.3758C45.093 16.8797 45.345 17.4675 45.345 18.1393V18.2653C45.345 18.9371 45.093 19.525 44.5892 20.0289C44.0853 20.5328 43.4974 20.7847 42.8256 20.7847H23.5523C23.0485 20.7847 22.6076 20.6797 22.2297 20.4698C21.8518 20.2598 21.5578 19.9449 21.3479 19.525C21.1379 19.1051 21.033 18.6852 21.033 18.2653V18.1393C21.033 17.4675 21.2849 16.8797 21.7888 16.3758C22.2927 15.8719 22.8805 15.62 23.5523 15.62H42.8256ZM43.4554 18.2653V18.1393C43.4554 17.7194 43.2455 17.5095 42.8256 17.5095H23.5523C23.1324 17.5095 22.9225 17.7194 22.9225 18.1393V18.2653C22.9225 18.6852 23.1324 18.8952 23.5523 18.8952H42.8256C43.2455 18.8952 43.4554 18.6852 43.4554 18.2653ZM38.0388 22.4223C38.7946 22.4223 39.4244 22.6742 39.9283 23.1781C40.4322 23.682 40.6841 24.2698 40.6841 24.9417V25.0676C40.6841 25.4875 40.5582 25.9074 40.3062 26.3273C40.0543 26.7472 39.7394 27.0621 39.3615 27.2721C38.9835 27.482 38.5427 27.587 38.0388 27.587H28.4651C27.9613 27.587 27.5204 27.482 27.1425 27.2721C26.7645 27.0621 26.4496 26.7472 26.1977 26.3273C25.9458 25.9074 25.8198 25.4875 25.8198 25.0676V24.9417C25.8198 24.2698 26.0717 23.682 26.5756 23.1781C27.0795 22.6742 27.7093 22.4223 28.4651 22.4223H38.0388ZM38.6686 25.0676V24.9417C38.6686 24.5218 38.4587 24.3118 38.0388 24.3118H28.4651C28.0452 24.3118 27.8353 24.5218 27.8353 24.9417V25.0676C27.8353 25.4875 28.0452 25.6975 28.4651 25.6975H38.0388C38.4587 25.6975 38.6686 25.4875 38.6686 25.0676ZM45.5969 35.901C46.3527 35.901 47.0036 36.1739 47.5494 36.7198C48.0953 37.2656 48.3682 37.9165 48.3682 38.6723V38.7983C48.3682 39.4701 48.0953 40.0789 47.5494 40.6248C47.0036 41.1707 46.3527 41.4436 45.5969 41.4436H20.6551C19.9832 41.4436 19.3744 41.1707 18.8285 40.6248C18.2826 40.0789 18.0097 39.4701 18.0097 38.7983V38.6723C18.0097 38.1684 18.1357 37.7065 18.3876 37.2866C18.6395 36.8667 18.9755 36.5308 19.3954 36.2789C19.8153 36.0269 20.2352 35.901 20.6551 35.901H45.5969ZM46.4787 38.7983V38.6723C46.4787 38.0844 46.1848 37.7905 45.5969 37.7905H20.6551C20.1512 37.7905 19.8992 38.0844 19.8992 38.6723V38.7983C19.8992 39.3021 20.1512 39.5541 20.6551 39.5541H45.5969C46.1848 39.5541 46.4787 39.3021 46.4787 38.7983Z" fill="white"/>
</g>
<defs>
<clipPath id="clip0_3_361">
<rect width="65" height="65" fill="white" transform="matrix(1 0 0 -1 0.5 65)"/>
</clipPath>
</defs>
</svg>
