<svg width="40" height="40" viewBox="0 0 40 40" fill="none" xmlns="http://www.w3.org/2000/svg">
<circle cx="20" cy="20" r="20" fill="#D94136" fill-opacity="0.3"/>
<circle cx="20" cy="20" r="15" fill="#D94136"/>
<path d="M21.2711 13.5881C21.2923 13.5088 21.329 13.4344 21.3789 13.3693C21.4289 13.3041 21.4912 13.2495 21.5623 13.2084C21.6334 13.1673 21.7119 13.1407 21.7933 13.13C21.8747 13.1192 21.9574 13.1247 22.0367 13.1459C23.1954 13.4482 24.2525 14.0539 25.0992 14.9007C25.9459 15.7474 26.5516 16.8045 26.8539 17.9631C26.8752 18.0424 26.8806 18.1251 26.8699 18.2066C26.8592 18.288 26.8325 18.3665 26.7915 18.4376C26.7504 18.5087 26.6957 18.571 26.6306 18.6209C26.5654 18.6709 26.491 18.7075 26.4117 18.7287C26.3589 18.7426 26.3046 18.7497 26.25 18.7498C26.1123 18.7498 25.9784 18.7043 25.8692 18.6204C25.76 18.5365 25.6816 18.4189 25.6461 18.2858C25.3995 17.3399 24.9052 16.477 24.2141 15.7858C23.5229 15.0946 22.6599 14.6003 21.7141 14.3537C21.6347 14.3326 21.5602 14.296 21.495 14.2461C21.4298 14.1962 21.375 14.1339 21.3339 14.0628C21.2927 13.9917 21.266 13.9131 21.2552 13.8317C21.2445 13.7503 21.2499 13.6675 21.2711 13.5881ZM21.0891 16.8537C22.1664 17.1412 22.8586 17.8334 23.1461 18.9108C23.1816 19.0439 23.26 19.1615 23.3692 19.2454C23.4784 19.3293 23.6123 19.3748 23.75 19.3748C23.8046 19.3747 23.8589 19.3676 23.9117 19.3537C23.991 19.3325 24.0654 19.2959 24.1306 19.2459C24.1957 19.196 24.2504 19.1337 24.2915 19.0626C24.3325 18.9915 24.3592 18.913 24.3699 18.8316C24.3806 18.7501 24.3752 18.6674 24.3539 18.5881C23.9539 17.0912 22.9086 16.0459 21.4117 15.6459C21.2516 15.6031 21.081 15.6257 20.9374 15.7087C20.7939 15.7917 20.6893 15.9283 20.6465 16.0885C20.6037 16.2487 20.6263 16.4193 20.7093 16.5628C20.7923 16.7063 20.9289 16.811 21.0891 16.8537ZM27.4906 24.303C27.3513 25.3616 26.8314 26.3333 26.0281 27.0366C25.2247 27.7399 24.1927 28.1268 23.125 28.1248C16.9219 28.1248 11.875 23.078 11.875 16.8748C11.8731 15.8071 12.2599 14.7752 12.9632 13.9718C13.6666 13.1684 14.6383 12.6485 15.6969 12.5092C15.9646 12.4765 16.2357 12.5313 16.4697 12.6653C16.7037 12.7994 16.8881 13.0055 16.9953 13.253L18.6453 16.9366V16.9459C18.7274 17.1354 18.7613 17.3422 18.744 17.5479C18.7267 17.7536 18.6587 17.9518 18.5461 18.1248C18.532 18.1459 18.5172 18.1655 18.5016 18.185L16.875 20.1131C17.4602 21.3022 18.7039 22.535 19.9086 23.1217L21.8102 21.5037C21.8288 21.488 21.8484 21.4734 21.8688 21.46C22.0416 21.3447 22.2405 21.2743 22.4475 21.2552C22.6544 21.2361 22.8628 21.2689 23.0539 21.3506L23.0641 21.3553L26.7445 23.0045C26.9924 23.1114 27.1991 23.2956 27.3335 23.5297C27.468 23.7637 27.5231 24.035 27.4906 24.303ZM26.25 24.1467H26.2414L22.5695 22.5022L20.6672 24.1202C20.6488 24.1358 20.6295 24.1505 20.6094 24.1639C20.4295 24.2839 20.2216 24.3552 20.0059 24.3708C19.7902 24.3864 19.5742 24.3458 19.3789 24.253C17.9156 23.5459 16.457 22.0983 15.7492 20.6506C15.6555 20.4568 15.6134 20.242 15.6271 20.0271C15.6408 19.8122 15.7098 19.6045 15.8274 19.4241C15.8406 19.4029 15.8555 19.3827 15.8719 19.3639L17.5 17.4334L15.8594 13.7616C15.8591 13.7584 15.8591 13.7553 15.8594 13.7522C15.1018 13.851 14.4062 14.2226 13.9028 14.7974C13.3995 15.3722 13.123 16.1108 13.125 16.8748C13.1279 19.5261 14.1824 22.068 16.0571 23.9427C17.9319 25.8174 20.4737 26.8719 23.125 26.8748C23.8886 26.8775 24.6269 26.6019 25.2021 26.0997C25.7772 25.5974 26.1497 24.9029 26.25 24.1459V24.1467Z" fill="white"/>
</svg>
