<svg width="65" height="65" viewBox="0 0 65 65" fill="none" xmlns="http://www.w3.org/2000/svg">
<g clip-path="url(#clip0_3_349)">
<path fill-rule="evenodd" clip-rule="evenodd" d="M19.7491 7.47246L19.846 7.0499C20.0308 6.26465 20.3337 5.10967 20.9587 3.97228C21.596 2.81378 22.5838 1.63942 24.1331 0.866495C25.6772 0.0970897 27.6122 -0.189897 30.0049 0.127021C32.6459 0.479151 37.9507 1.35243 42.6376 3.73636C47.3509 6.13437 51.7666 10.2596 51.7666 17.1296C51.7666 20.6791 50.3933 24.4874 49.0622 26.9699C48.4231 28.1636 47.6642 29.3045 46.9036 29.919C46.7293 30.0599 46.4811 30.2359 46.173 30.3592C45.3278 33.1367 43.6454 35.5854 41.3558 37.3705C39.0661 39.1556 36.281 40.19 33.3813 40.3322C30.4815 40.4744 27.6085 39.7175 25.1552 38.1649C22.7019 36.6124 20.788 34.3401 19.6752 31.6585L19.6329 31.6656L19.0079 30.9067L19.0061 30.9032L19.0026 30.8997L18.9938 30.8874L18.9639 30.8522C18.8133 30.6645 18.6683 30.4725 18.529 30.2764C18.1497 29.7485 17.7914 29.2058 17.455 28.6496C16.6275 27.2798 15.6292 25.329 14.9901 23.0525C14.3527 20.7759 14.0605 18.1068 14.7295 15.3531C15.3809 12.6734 16.918 10.036 19.7016 7.68022L19.7491 7.47246ZM22.707 29.7236C23.4706 31.9195 24.937 33.8024 26.879 35.0807C28.821 36.3589 31.1303 36.9611 33.4492 36.7941C35.7682 36.627 37.9673 35.7001 39.7061 34.1567C41.4448 32.6133 42.6262 30.5397 43.0672 28.257L43.2661 28.3239C43.2584 28.2243 43.2549 28.1244 43.2556 28.0245C43.2556 25.1107 42.8506 23.0771 42.4738 21.8094C42.3999 21.5628 42.3183 21.3185 42.2291 21.077L42.1569 21.0805H42.0865C40.77 21.1088 39.4538 21.0086 38.1567 20.7812C35.1337 20.2706 31.0402 18.9959 26.2195 16.0433C26.1139 16.2792 26.0082 16.5451 25.9026 16.8409C25.5575 17.8181 25.274 18.9783 25.0293 20.2037C24.8128 21.283 24.6349 22.3693 24.4659 23.387L24.4008 23.7884C24.2194 24.88 24.0381 25.9523 23.8268 26.7287C23.4571 28.0774 23.0803 29.0352 22.707 29.7218M20.2421 26.4417C19.4477 25.0763 18.8233 23.6188 18.3829 22.1017C17.8564 20.2249 17.6627 18.1931 18.1522 16.1842C18.6276 14.2298 19.7773 12.1752 22.1418 10.2279C22.5679 9.93913 22.7616 9.55179 22.8144 9.44791V9.44615C22.906 9.25544 22.9803 9.05685 23.0363 8.85281C23.0926 8.6521 23.1542 8.37743 23.2123 8.13094L23.2739 7.85452C23.4412 7.14498 23.6578 6.37205 24.0451 5.66603C24.4219 4.9829 24.9378 4.39836 25.7054 4.0163C26.4766 3.63072 27.6703 3.36662 29.5401 3.61663C32.0983 3.95644 36.9102 4.77162 41.0407 6.87384C45.143 8.96021 48.2453 12.1188 48.2453 17.1279C48.2453 19.4343 47.4706 22.0577 46.5374 24.1265C46.3614 22.7778 46.1078 21.6756 45.8473 20.8024C45.6637 20.1788 45.4372 19.5688 45.1694 18.9766C45.0668 18.7578 44.9552 18.5435 44.8349 18.3339L44.805 18.2864L44.7944 18.2688L44.7891 18.26L44.7856 18.2547L44.1341 17.2441L42.9686 17.4782L42.9439 17.4835L42.7732 17.5064C42.5112 17.5358 42.248 17.5534 41.9844 17.5592C40.8989 17.5801 39.8139 17.4952 38.7448 17.3057C35.9049 16.8268 31.7321 15.5222 26.6632 12.147L25.4307 11.3248L24.4113 12.3988C23.5715 13.2826 23.001 14.4887 22.5838 15.663C22.1577 16.8691 21.8355 18.216 21.5767 19.5083C21.362 20.608 21.1671 21.7115 20.9921 22.8183L20.9252 23.2127C20.7368 24.3589 20.5837 25.2339 20.4287 25.8008C20.3653 26.0344 20.3031 26.2481 20.2421 26.4417Z" fill="white"/>
<path fill-rule="evenodd" clip-rule="evenodd" d="M21.9764 41.8564C21.6031 41.1134 21.1436 40.1961 20.3672 40.374C10.8526 42.5396 1 48.7916 1 55.4398V65.0002H64.3835V55.4398C64.3835 50.2037 58.2705 45.2122 51.0254 42.2702L51.0166 42.2526L50.992 42.205L50.9338 42.2332C49.0095 41.4585 47.0058 40.8247 45.0163 40.374C44.1307 40.1715 43.2152 41.3898 42.8155 42.1522H22.1278L21.9764 41.8564ZM45.7258 44.1805C46.4958 44.3941 47.2594 44.633 48.0164 44.8971C48.0376 45.4992 47.9918 46.2105 47.8932 46.9359C47.7935 47.6871 47.6334 48.4289 47.4143 49.1543H45.0163C44.6894 49.1545 44.369 49.2457 44.091 49.4176C43.813 49.5896 43.5884 49.8356 43.4423 50.128L41.6816 53.6493C41.5592 53.8936 41.4953 54.163 41.495 54.4363V57.9576C41.495 58.4245 41.6805 58.8724 42.0107 59.2026C42.3409 59.5327 42.7887 59.7182 43.2556 59.7182H46.777V56.1969H45.0163V54.8518L46.1044 52.6756H50.9708L52.0589 54.8518V56.1969H50.2983V59.7182H53.8196C54.2865 59.7182 54.7343 59.5327 55.0645 59.2026C55.3947 58.8724 55.5802 58.4245 55.5802 57.9576V54.4363C55.5799 54.163 55.516 53.8936 55.3936 53.6493L53.6329 50.128C53.4868 49.8356 53.2622 49.5896 52.9842 49.4176C52.7062 49.2457 52.3858 49.1545 52.0589 49.1543H51.0624C51.2777 48.2221 51.4236 47.2752 51.499 46.3214C53.2157 47.1331 54.8108 48.0645 56.1929 49.0716C59.5769 51.54 60.8622 53.85 60.8622 55.4398V61.4789H4.5213V55.4398C4.5213 53.85 5.80658 51.54 9.19055 49.0716C10.8913 47.8303 12.9214 46.707 15.0975 45.7774C15.1583 47.1804 15.3835 48.5714 15.7683 49.922L15.7824 49.9713C14.7299 50.6372 13.9464 51.6536 13.5706 52.8411C13.1947 54.0285 13.2506 55.3106 13.7283 56.4609C14.206 57.6112 15.0749 58.5556 16.1814 59.1274C17.2879 59.6992 18.5609 59.8616 19.7755 59.5859C20.9902 59.3102 22.0683 58.6141 22.8195 57.6206C23.5707 56.6271 23.9466 55.4001 23.8809 54.1563C23.8152 52.9125 23.3121 51.732 22.4604 50.8231C21.6087 49.9143 20.4632 49.3357 19.2263 49.1895L19.1488 48.936C18.9627 48.2802 18.8244 47.6117 18.735 46.9359C18.6364 46.2533 18.5951 45.5637 18.6118 44.8742C18.6177 44.7263 18.6265 44.5948 18.6382 44.4798C18.8495 44.4141 19.0608 44.3513 19.272 44.2914L20.0027 45.6753H44.9406L45.7258 44.1805ZM18.6065 56.2251C19.5538 56.2251 20.3672 55.4504 20.3672 54.438C20.3672 53.4274 19.5538 52.651 18.6065 52.651C17.6593 52.651 16.8459 53.4257 16.8459 54.438C16.8459 55.4487 17.6593 56.2251 18.6065 56.2251Z" fill="white"/>
</g>
<defs>
<clipPath id="clip0_3_349">
<rect width="65" height="65" fill="white"/>
</clipPath>
</defs>
</svg>
