<svg width="65" height="65" viewBox="0 0 65 65" fill="none" xmlns="http://www.w3.org/2000/svg">
<g clip-path="url(#clip0_3_339)">
<path d="M23.3043 34.8934C23.3043 34.8934 23.2413 34.8304 23.1153 34.7045C22.9894 34.5785 22.9264 34.3265 22.9264 33.9486C22.9264 33.5707 23.0523 33.2348 23.3043 32.9409C23.5562 32.647 23.8921 32.5 24.312 32.5C24.564 32.5 24.7949 32.563 25.0049 32.6889C25.2148 32.8149 25.3828 32.9829 25.5087 33.1928C25.6347 33.4028 25.6977 33.6337 25.6977 33.8857C25.6977 34.3055 25.5717 34.6415 25.3198 34.8934C25.0678 35.1453 24.7319 35.2713 24.312 35.2713C23.8921 35.2713 23.5562 35.1453 23.3043 34.8934ZM27.7132 29.2248C27.7132 28.301 28.1751 27.8391 29.0989 27.8391C29.4348 27.8391 29.7497 27.9651 30.0436 28.217C30.3375 28.469 30.4845 28.7839 30.4845 29.1618C30.4845 29.5397 30.3375 29.8756 30.0436 30.1696C29.7497 30.4635 29.4138 30.6105 29.0359 30.6105C28.658 30.6105 28.343 30.4635 28.0911 30.1696C27.8392 29.8756 27.7132 29.5607 27.7132 29.2248ZM32.8149 25.4457C32.8149 25.4457 32.7415 25.3827 32.5945 25.2568C32.4475 25.1308 32.374 24.8579 32.374 24.438C32.374 24.0181 32.521 23.6822 32.8149 23.4302C33.1089 23.1783 33.4448 23.0523 33.8227 23.0523C34.2006 23.0523 34.5155 23.1783 34.7675 23.4302C35.0194 23.6822 35.1454 24.0181 35.1454 24.438C35.1454 24.8579 35.0194 25.1938 34.7675 25.4457C34.5155 25.6977 34.2006 25.8236 33.8227 25.8236C33.4448 25.8236 33.1089 25.6977 32.8149 25.4457ZM29.1618 35.9641C29.1618 35.9641 29.0884 35.8907 28.9414 35.7437C28.7944 35.5967 28.7209 35.3343 28.7209 34.9564C28.7209 34.5785 28.8679 34.2636 29.1618 34.0116C29.4558 33.7597 29.7917 33.6337 30.1696 33.6337C30.5475 33.6337 30.8624 33.7597 31.1144 34.0116C31.3663 34.2636 31.4923 34.5785 31.4923 34.9564C31.4923 35.3343 31.3663 35.6702 31.1144 35.9641C30.8624 36.2581 30.5475 36.405 30.1696 36.405C29.7917 36.405 29.4558 36.2581 29.1618 35.9641ZM33.8857 31.2403C33.8857 31.2403 33.8227 31.1773 33.6967 31.0513C33.5708 30.9254 33.5078 30.6734 33.5078 30.2955C33.5078 29.9176 33.6337 29.5817 33.8857 29.2878C34.1376 28.9939 34.4735 28.8469 34.8934 28.8469C35.1454 28.8469 35.3763 28.9099 35.5863 29.0358C35.7962 29.1618 35.9642 29.3298 36.0901 29.5397C36.2161 29.7497 36.2791 29.9806 36.2791 30.2326C36.2791 30.6524 36.1321 30.9884 35.8382 31.2403C35.5443 31.4922 35.2083 31.6182 34.8304 31.6182C34.4525 31.6182 34.1376 31.4922 33.8857 31.2403ZM30.2326 41.8217C30.2326 41.8217 30.1696 41.7587 30.0436 41.6327C29.9177 41.5068 29.8547 41.2338 29.8547 40.8139C29.8547 40.394 29.9806 40.0581 30.2326 39.8062C30.4845 39.5543 30.7994 39.4283 31.1773 39.4283C31.5552 39.4283 31.8912 39.5543 32.1851 39.8062C32.479 40.0581 32.626 40.394 32.626 40.8139C32.626 41.2338 32.479 41.5698 32.1851 41.8217C31.8912 42.0736 31.5552 42.1996 31.1773 42.1996C30.7994 42.1996 30.4845 42.0736 30.2326 41.8217ZM34.9564 37.0349C34.9564 37.0349 34.8829 36.9719 34.736 36.8459C34.589 36.72 34.5155 36.468 34.5155 36.0901C34.5155 35.7122 34.6625 35.3763 34.9564 35.0824C35.2503 34.7884 35.5863 34.6415 35.9642 34.6415C36.3421 34.6415 36.657 34.7884 36.9089 35.0824C37.1609 35.3763 37.2868 35.6912 37.2868 36.0271C37.2868 36.2791 37.2239 36.51 37.0979 36.72C36.9719 36.9299 36.804 37.0979 36.594 37.2238C36.3841 37.3498 36.1531 37.4128 35.9012 37.4128C35.5653 37.4128 35.2503 37.2868 34.9564 37.0349ZM39.3023 31.3663C39.3023 31.1143 39.3653 30.8834 39.4913 30.6734C39.6173 30.4635 39.7852 30.2955 39.9952 30.1696C40.2051 30.0436 40.4361 29.9806 40.688 29.9806C41.1079 29.9806 41.4438 30.1066 41.6958 30.3585C41.9477 30.6105 42.0737 30.9254 42.0737 31.3033C42.0737 31.6812 41.9477 32.0171 41.6958 32.311C41.4438 32.605 41.1079 32.7519 40.688 32.7519C40.2681 32.7519 39.9322 32.605 39.6802 32.311C39.4283 32.0171 39.3023 31.7022 39.3023 31.3663ZM60.5911 40.3101C63.3624 43.1654 64.7481 46.5665 64.7481 50.5136C64.7481 54.4606 63.3414 57.8408 60.5281 60.6541C57.7148 63.4674 54.3346 64.874 50.3876 64.874C46.4406 64.874 43.0394 63.4884 40.1841 60.717L32.5 52.907L24.8159 60.717C21.9606 63.4884 18.5594 64.874 14.6124 64.874C10.6654 64.874 7.28522 63.4674 4.47191 60.6541C1.65861 57.8408 0.251953 54.4606 0.251953 50.5136C0.251953 46.5665 1.63761 43.1654 4.40893 40.3101L12.219 32.626L4.40893 24.9419C1.63761 22.0866 0.251953 18.6854 0.251953 14.7384C0.251953 10.7913 1.65861 7.41117 4.47191 4.59786C7.28522 1.78455 10.6654 0.377899 14.6124 0.377899C18.5594 0.377899 21.9606 1.76356 24.8159 4.53488L26.9574 6.80232C27.6292 7.47415 27.6292 8.12499 26.9574 8.75484C26.2855 9.38468 25.6137 9.36369 24.9419 8.69185L22.8004 6.55038C20.533 4.28294 17.8036 3.14922 14.6124 3.14922C11.4212 3.14922 8.69188 4.28294 6.42443 6.55038C4.15699 8.81782 3.02327 11.5471 3.02327 14.7384C3.02327 17.9296 4.15699 20.6589 6.42443 22.9263L42.1996 58.7015C44.4671 60.969 47.1964 62.1027 50.3876 62.1027C53.5788 62.1027 56.3082 60.969 58.5756 58.7015C60.843 56.4341 61.9768 53.7048 61.9768 50.5136C61.9768 47.3223 60.843 44.593 58.5756 42.3256L28.0911 11.8411C27.5032 11.2532 27.5242 10.6234 28.1541 9.95154C28.7839 9.27971 29.4348 9.27971 30.1066 9.95154L32.5 12.345L40.1841 4.53488C43.0394 1.76356 46.4406 0.377899 50.3876 0.377899C54.3346 0.377899 57.7148 1.78455 60.5281 4.59786C63.3414 7.41117 64.7481 10.7913 64.7481 14.7384C64.7481 18.6854 63.3624 22.0866 60.5911 24.9419L55.1744 30.2326C54.9225 30.4845 54.6076 30.6105 54.2297 30.6105C53.8518 30.6105 53.4948 30.4845 53.1589 30.2326C52.5711 29.5607 52.5711 28.9309 53.1589 28.343L58.5756 22.9263C60.843 20.6589 61.9768 17.9296 61.9768 14.7384C61.9768 11.5471 60.843 8.81782 58.5756 6.55038C56.3082 4.28294 53.5788 3.14922 50.3876 3.14922C47.1964 3.14922 44.4671 4.28294 42.1996 6.55038L34.5155 14.2345L60.5911 40.3101ZM22.8004 58.7015L30.4845 51.0174L14.1085 34.6415L6.42443 42.3256C4.15699 44.593 3.02327 47.3223 3.02327 50.5136C3.02327 53.7048 4.15699 56.4341 6.42443 58.7015C8.69188 60.969 11.4212 62.1027 14.6124 62.1027C17.8036 62.1027 20.533 60.969 22.8004 58.7015ZM29.2248 16.7539C29.8967 16.082 30.5475 16.082 31.1773 16.7539C31.8072 17.4257 31.7862 18.0555 31.1144 18.6434L18.5175 31.2403C18.2655 31.5762 17.9506 31.7442 17.5727 31.7442C17.1948 31.7442 16.8799 31.5762 16.6279 31.2403C15.9561 30.6524 15.9561 30.0226 16.6279 29.3508L29.2248 16.7539ZM46.4826 34.0116C47.0704 33.3398 47.7003 33.3188 48.3721 33.9486C49.0439 34.5785 49.0439 35.2293 48.3721 35.9012L35.7752 48.4981C35.5233 48.75 35.2083 48.876 34.8304 48.876C34.4525 48.876 34.1376 48.75 33.8857 48.4981C33.2138 47.8262 33.2138 47.1964 33.8857 46.6085L46.4826 34.0116Z" fill="white"/>
</g>
<defs>
<clipPath id="clip0_3_339">
<rect width="65" height="65" fill="white" transform="matrix(1 0 0 -1 0 65)"/>
</clipPath>
</defs>
</svg>
