<svg width="65" height="65" viewBox="0 0 65 65" fill="none" xmlns="http://www.w3.org/2000/svg">
<g clip-path="url(#clip0_3_344)">
<path d="M52.5291 12.5969C52.5291 12.5969 51.1644 11.2322 48.4351 8.5029C45.7058 5.77357 40.3941 4.40891 32.5 4.40891C24.606 4.40891 17.9296 7.13824 12.4709 12.5969C7.01229 18.0555 4.28296 24.7319 4.28296 32.626C4.28296 40.52 7.01229 47.1964 12.4709 52.655C17.9296 58.1137 24.606 60.843 32.5 60.843C40.3941 60.843 47.0704 58.1137 52.5291 52.655C57.9877 47.1964 60.7171 40.52 60.7171 32.626C60.7171 24.7319 57.9877 18.0555 52.5291 12.5969ZM9.69963 9.82557C9.69963 9.82557 11.2742 8.25096 14.4235 5.10174C17.5727 1.95251 23.5982 0.377899 32.5 0.377899C41.4018 0.377899 49.002 3.52712 55.3004 9.82557C61.5989 16.124 64.7481 23.7242 64.7481 32.626C64.7481 41.5278 61.5989 49.1279 55.3004 55.4263C49.002 61.7248 41.4018 64.874 32.5 64.874C23.5982 64.874 15.9981 61.7248 9.69963 55.4263C3.40118 49.1279 0.251953 41.5278 0.251953 32.626C0.251953 23.7242 3.40118 16.124 9.69963 9.82557ZM32.5 53.5368C28.469 53.5368 24.7739 52.4241 21.4147 50.1986C18.0556 47.9732 15.5782 44.9289 13.9826 41.0659L17.6357 39.4283C18.8114 42.4515 20.7639 44.824 23.4932 46.5455C26.2226 48.2671 29.2248 49.1279 32.5 49.1279C34.5995 49.1279 36.657 48.729 38.6725 47.9312C40.688 47.1334 42.4516 45.9997 43.9632 44.53C45.4748 43.0604 46.6085 41.3598 47.3644 39.4283L51.0175 41.0659C50.0097 43.7532 48.5401 46.0417 46.6085 47.9312C44.677 49.8207 42.5145 51.2274 40.1211 52.1512C37.7277 53.0749 35.1874 53.5368 32.5 53.5368ZM27.2723 21.7296C27.2723 21.7296 27.4718 21.9291 27.8707 22.328C28.2696 22.7269 28.469 23.4722 28.469 24.5639C28.469 25.6557 28.0701 26.6004 27.2723 27.3982C26.4745 28.1961 25.5297 28.595 24.438 28.595C23.3463 28.595 22.4015 28.1961 21.6037 27.3982C20.8059 26.6004 20.407 25.6557 20.407 24.5639C20.407 23.4722 20.8059 22.5274 21.6037 21.7296C22.4015 20.9318 23.3463 20.5329 24.438 20.5329C25.5297 20.5329 26.4745 20.9318 27.2723 21.7296ZM43.3963 21.7296C43.3963 21.7296 43.5958 21.9291 43.9947 22.328C44.3936 22.7269 44.593 23.4722 44.593 24.5639C44.593 25.6557 44.1941 26.6004 43.3963 27.3982C42.5985 28.1961 41.6538 28.595 40.562 28.595C39.4703 28.595 38.5255 28.1961 37.7277 27.3982C36.9299 26.6004 36.531 25.6557 36.531 24.5639C36.531 23.4722 36.9299 22.5274 37.7277 21.7296C38.5255 20.9318 39.4703 20.5329 40.562 20.5329C41.6538 20.5329 42.5985 20.9318 43.3963 21.7296Z" fill="white"/>
</g>
<defs>
<clipPath id="clip0_3_344">
<rect width="65" height="65" fill="white" transform="matrix(1 0 0 -1 0 65)"/>
</clipPath>
</defs>
</svg>
