<svg width="21" height="21" viewBox="0 0 21 21" fill="none" xmlns="http://www.w3.org/2000/svg">
<path d="M10.5179 3.25C9.79696 3.25 9.13216 3.41804 8.52355 3.75412C7.92429 4.08059 7.40463 4.50069 6.96455 5.0144C6.52448 5.52812 6.17804 6.10185 5.92523 6.7356C5.68178 7.36934 5.56006 7.98388 5.56006 8.57922C5.56006 9.16495 5.60688 9.72908 5.70051 10.2716C5.79414 10.8141 6.01418 11.3158 6.36062 11.7767L10.1949 17.0772C10.1949 17.0868 10.1996 17.094 10.2089 17.0988C10.2183 17.1036 10.223 17.106 10.223 17.106C10.2604 17.1444 10.3049 17.178 10.3564 17.2068C10.4079 17.2356 10.4618 17.25 10.5179 17.25C10.5835 17.25 10.642 17.2332 10.6935 17.1996C10.745 17.166 10.7895 17.1252 10.8269 17.0772C11.1078 16.7027 11.4309 16.261 11.796 15.7521C12.1706 15.2527 12.5427 14.7606 12.9126 14.2757C13.2824 13.7908 13.6312 13.3563 13.9589 12.9722C14.2867 12.5881 14.5488 12.3241 14.7455 12.18V12.1656V12.108C15.0545 11.4359 15.2909 10.8189 15.4547 10.2572C15.6186 9.69547 15.7005 9.13615 15.7005 8.57922C15.7005 7.98388 15.5648 7.36934 15.2932 6.7356C15.0217 6.10185 14.6518 5.52812 14.1837 5.0144C13.7155 4.50069 13.1631 4.08059 12.5264 3.75412C11.899 3.41804 11.2295 3.25 10.5179 3.25ZM10.5039 12.4681C9.9889 12.4681 9.51137 12.3673 9.0713 12.1656C8.64059 11.964 8.27074 11.6855 7.96175 11.3302C7.65276 10.975 7.40931 10.5621 7.23141 10.0916C7.06287 9.62106 6.9786 9.11694 6.9786 8.57922C6.9786 8.0511 7.06287 7.54698 7.23141 7.06687C7.40931 6.59636 7.65276 6.18587 7.96175 5.83539C8.27074 5.48491 8.64059 5.20885 9.0713 5.0072C9.51137 4.79595 9.9889 4.69033 10.5039 4.69033C11.0282 4.69033 11.5198 4.79595 11.9786 5.0072C12.4374 5.20885 12.84 5.48491 13.1865 5.83539C13.5329 6.18587 13.8045 6.59636 14.0011 7.06687C14.1977 7.54698 14.296 8.0511 14.296 8.57922C14.296 9.11694 14.1977 9.62106 14.0011 10.0916C13.8045 10.5621 13.5329 10.975 13.1865 11.3302C12.84 11.6855 12.4374 11.964 11.9786 12.1656C11.5198 12.3673 11.0282 12.4681 10.5039 12.4681Z" fill="white"/>
</svg>
