<svg width="31" height="39" viewBox="0 0 31 39" fill="none" xmlns="http://www.w3.org/2000/svg">
<path d="M9.8749 5.875C9.8749 5.13631 10.0204 4.40486 10.3031 3.72241C10.5858 3.03995 11.0001 2.41985 11.5224 1.89752C12.0448 1.37519 12.6649 0.96086 13.3473 0.678178C14.0298 0.395495 14.7612 0.25 15.4999 0.25C16.2386 0.25 16.97 0.395495 17.6525 0.678178C18.335 0.96086 18.955 1.37519 19.4774 1.89752C19.9997 2.41985 20.414 3.03995 20.6967 3.72241C20.9794 4.40486 21.1249 5.13631 21.1249 5.875C21.1249 6.61369 20.9794 7.34514 20.6967 8.02759C20.414 8.71005 19.9997 9.33015 19.4774 9.85248C18.955 10.3748 18.335 10.7891 17.6525 11.0718C16.97 11.3545 16.2386 11.5 15.4999 11.5C14.7612 11.5 14.0298 11.3545 13.3473 11.0718C12.6649 10.7891 12.0448 10.3748 11.5224 9.85248C11.0001 9.33015 10.5858 8.71005 10.3031 8.02759C10.0204 7.34514 9.8749 6.61369 9.8749 5.875ZM1.10146 10.2891C2.11709 8.89062 4.07021 8.58594 5.46865 9.60156L8.29678 11.6562C10.3905 13.1797 12.914 14 15.4999 14C18.0858 14 20.6093 13.1797 22.703 11.6562L25.5312 9.59375C26.9296 8.57812 28.8827 8.89062 29.8983 10.2812C30.914 11.6719 30.6015 13.6328 29.2108 14.6484L26.3827 16.7109C25.3202 17.4844 24.1874 18.1328 22.9999 18.6641V21.5H7.9999V18.6641C6.8124 18.1406 5.67959 17.4844 4.61709 16.7109L1.78896 14.6484C0.390527 13.6328 0.0858398 11.6797 1.10146 10.2812V10.2891ZM8.11709 24.7266L12.8515 28.8672L10.8202 31.7734L12.7187 33.6719C13.9374 34.8906 13.9374 36.8672 12.7187 38.0938C11.4999 39.3203 9.52334 39.3125 8.29678 38.0938L4.54678 34.3438C3.46865 33.2656 3.32021 31.5781 4.1874 30.3359L8.10928 24.7266H8.11709ZM18.1562 28.8672L22.8905 24.7266L26.8124 30.3359C27.6796 31.5781 27.5312 33.2656 26.4608 34.3359L22.7108 38.0859C21.4921 39.3047 19.5155 39.3047 18.289 38.0859C17.0624 36.8672 17.0702 34.8906 18.289 33.6641L20.1874 31.7656L18.1562 28.8594V28.8672Z" fill="white"/>
</svg>
