<svg width="13" height="16" viewBox="0 0 13 16" fill="none" xmlns="http://www.w3.org/2000/svg">
<path d="M6.54375 0.21875C9.48125 0.21875 12.1687 2.25 12.1687 5.34375C12.1687 8.25 10.6687 11.5 7.35625 11.5C6.54375 11.5 5.575 11.0938 5.16875 10.375C4.48125 13.1875 4.5125 13.625 2.95 15.7812C2.79375 15.8438 2.825 15.8438 2.73125 15.7188C2.66875 15.125 2.60625 14.5625 2.60625 13.9688C2.60625 12.0625 3.48125 9.28125 3.91875 7.4375C3.66875 6.9375 3.60625 6.375 3.60625 5.84375C3.60625 3.34375 6.54375 2.96875 6.54375 5.03125C6.54375 6.25 5.7 7.40625 5.7 8.59375C5.7 9.375 6.3875 9.9375 7.16875 9.9375C9.325 9.9375 9.98125 6.84375 9.98125 5.1875C9.98125 2.96875 8.41875 1.75 6.2625 1.75C3.79375 1.75 1.8875 3.53125 1.8875 6.03125C1.8875 7.25 2.6375 7.875 2.6375 8.15625C2.6375 8.40625 2.45 9.25 2.1375 9.25C1.3875 9.25 0.16875 8 0.16875 5.8125C0.16875 2.34375 3.325 0.21875 6.54375 0.21875Z" fill="white"/>
</svg>
