<svg width="65" height="65" viewBox="0 0 65 65" fill="none" xmlns="http://www.w3.org/2000/svg">
<path d="M23.0207 24.2707H24.2707V23.0207V2.7428C26.2212 3.11025 30.7287 3.28109 32.4998 3.28109C34.2706 3.28109 38.7805 3.11031 40.729 2.74282V23.0207V24.2707H41.979H62.2569C61.8894 26.2212 61.7186 30.7287 61.7186 32.4998C61.7186 34.2706 61.8894 38.7805 62.2569 40.729H41.979H40.729V41.979V62.2569C38.7785 61.8894 34.271 61.7186 32.4998 61.7186C30.7287 61.7186 26.2212 61.8894 24.2707 62.2569V41.979V40.729H23.0207H2.7428C3.11025 38.7785 3.28109 34.271 3.28109 32.4998C3.28109 30.7287 3.11025 26.2212 2.7428 24.2707H23.0207Z" stroke="white" stroke-width="2.5"/>
</svg>
