<svg width="75" height="75" viewBox="0 0 75 75" fill="none" xmlns="http://www.w3.org/2000/svg">
<rect x="1.09277" y="1.21094" width="72.8042" height="72.8042" rx="7.5" stroke="#222222" stroke-dasharray="2 2"/>
<path fill-rule="evenodd" clip-rule="evenodd" d="M36.9673 29.8985C40.4831 29.8985 43.3331 27.0485 43.3331 23.5328C43.3331 20.017 40.4831 17.167 36.9673 17.167C33.4516 17.167 30.6016 20.017 30.6016 23.5328C30.6016 27.0485 33.4516 29.8985 36.9673 29.8985Z" fill="#222222"/>
<path fill-rule="evenodd" clip-rule="evenodd" d="M36.9673 27.6664C39.2502 27.6664 41.1009 25.8157 41.1009 23.5328C41.1009 21.2498 39.2502 19.3992 36.9673 19.3992C34.6843 19.3992 32.8337 21.2498 32.8337 23.5328C32.8337 25.8157 34.6843 27.6664 36.9673 27.6664ZM43.3331 23.5328C43.3331 27.0485 40.4831 29.8985 36.9673 29.8985C33.4516 29.8985 30.6016 27.0485 30.6016 23.5328C30.6016 20.017 33.4516 17.167 36.9673 17.167C40.4831 17.167 43.3331 20.017 43.3331 23.5328Z" fill="#222222"/>
<path fill-rule="evenodd" clip-rule="evenodd" d="M31.1807 39.1579V35.6855H42.7549V39.1579H31.1807ZM31.1807 41.4728V43.7184C31.1807 44.4514 31.8409 46.334 33.8666 47.2361C34.0984 47.3392 34.359 47.4687 34.5932 47.5849L34.731 47.6532C35.0187 47.7955 35.2972 47.93 35.5789 48.0494C36.1663 48.2982 36.6243 48.4171 36.9678 48.4171C37.3111 48.4171 37.7693 48.2982 38.3566 48.0494C38.6383 47.93 38.9168 47.7955 39.2046 47.6532L39.3424 47.5849C39.5766 47.4687 39.8372 47.3392 40.069 47.2361C42.0946 46.334 42.7549 44.4514 42.7549 43.7184V41.4728H31.1807Z" fill="#222222"/>
<path fill-rule="evenodd" clip-rule="evenodd" d="M34.7746 45.197C35.0498 45.3194 35.3456 45.4663 35.5678 45.5767L35.7201 45.6523C35.7206 45.6525 35.721 45.6528 35.7215 45.6529C36.0017 45.7915 36.2315 45.9016 36.4496 45.994C36.6736 46.0889 36.8316 46.1412 36.9334 46.168C36.9463 46.1714 36.9578 46.1742 36.9678 46.1766C36.9777 46.1742 36.9892 46.1714 37.0022 46.168C37.1039 46.1412 37.262 46.0889 37.4858 45.994C37.7041 45.9016 37.9339 45.7915 38.2141 45.6529C38.2138 45.6531 38.2145 45.6526 38.2141 45.6529L38.3678 45.5767C38.5898 45.4663 38.8858 45.3194 39.161 45.197C39.7108 44.952 40.0584 44.5862 40.2741 44.2382C40.3842 44.0603 40.454 43.8959 40.4931 43.7728C40.5017 43.7459 40.5081 43.7231 40.5129 43.705H33.4227C33.4273 43.7231 33.4338 43.7459 33.4423 43.7728C33.4816 43.8959 33.5512 44.0603 33.6615 44.2382C33.8771 44.5862 34.2247 44.952 34.7746 45.197ZM31.1807 41.4728H42.7549V43.7184C42.7549 44.4514 42.0946 46.334 40.069 47.2361C39.8372 47.3392 39.5766 47.4687 39.3424 47.5849L39.2046 47.6532C38.9168 47.7955 38.6383 47.93 38.3566 48.0494C37.7693 48.2982 37.3111 48.4171 36.9678 48.4171C36.6243 48.4171 36.1663 48.2982 35.5789 48.0494C35.2972 47.93 35.0187 47.7955 34.731 47.6532L34.5932 47.5849C34.359 47.4687 34.0984 47.3392 33.8666 47.2361C31.8409 46.334 31.1807 44.4514 31.1807 43.7184V41.4728ZM31.1807 39.1579V35.6855H42.7549V39.1579H31.1807Z" fill="#222222"/>
<path fill-rule="evenodd" clip-rule="evenodd" d="M30.0014 46.9121C28.2056 48.4752 27.2168 50.4407 27.2168 53.0346C27.2168 54.0692 27.4381 55.6216 28.0132 56.8798C28.6022 58.1682 29.393 58.8338 30.3926 58.8338C31.4649 58.8338 32.3727 58.0131 32.3727 56.9569C32.3727 56.4869 32.1738 56.0426 31.8591 55.3821L31.8384 55.3384C31.5533 54.7408 31.1771 53.9518 31.1771 53.0346C31.1771 52.0314 31.6746 50.9665 32.2536 50.1046C32.4395 49.8279 32.6361 49.6028 32.8414 49.4086C31.4732 48.7867 30.5542 47.8466 30.0014 46.9121Z" fill="#222222"/>
<path fill-rule="evenodd" clip-rule="evenodd" d="M31.5945 51.2863C31.3429 51.8556 31.1771 52.4553 31.1771 53.0346C31.1771 53.9518 31.5533 54.7408 31.8384 55.3384L31.8591 55.3821C32.1738 56.0426 32.3727 56.4869 32.3727 56.9569C32.3727 58.0131 31.4649 58.8338 30.3926 58.8338C29.393 58.8338 28.6022 58.1682 28.0132 56.8798C27.4381 55.6216 27.2168 54.0692 27.2168 53.0346C27.2168 51.3159 27.651 49.8729 28.4665 48.6401C28.8815 48.0126 29.3955 47.4393 30.0014 46.9121C30.2476 47.3285 30.5667 47.746 30.9658 48.1359C31.1042 48.2712 31.2523 48.4032 31.4103 48.5306C31.8189 48.8603 32.2942 49.1599 32.8414 49.4086C32.6361 49.6028 32.4395 49.8279 32.2536 50.1046C32.009 50.4688 31.7787 50.8694 31.5945 51.2863Z" fill="#222222"/>
<path fill-rule="evenodd" clip-rule="evenodd" d="M41.0947 49.4081C42.4629 48.7862 43.382 47.8462 43.9348 46.9116C45.7305 48.4747 46.7193 50.4402 46.7193 53.034C46.7193 54.0687 46.4981 55.6211 45.9229 56.8793C45.3339 58.1677 44.543 58.8333 43.5436 58.8333C42.4712 58.8333 41.5633 58.0126 41.5633 56.9562C41.5633 56.4864 41.7623 56.0419 42.0769 55.3815L42.0977 55.3379C42.3827 54.7401 42.759 53.9511 42.759 53.034C42.759 52.0307 42.2614 50.966 41.6825 50.1039C41.4967 49.8273 41.3001 49.6023 41.0947 49.4081Z" fill="#222222"/>
<path fill-rule="evenodd" clip-rule="evenodd" d="M42.526 48.5301C42.1172 48.8599 41.6419 49.1594 41.0947 49.4081C41.3001 49.6023 41.4967 49.8273 41.6825 50.1039C41.9272 50.4682 42.1574 50.8688 42.3416 51.2858C42.5931 51.8551 42.759 52.4548 42.759 53.034C42.759 53.9511 42.3827 54.7401 42.0977 55.3379L42.0769 55.3815C41.7623 56.0419 41.5633 56.4864 41.5633 56.9562C41.5633 58.0126 42.4712 58.8333 43.5436 58.8333C44.543 58.8333 45.3339 58.1677 45.9229 56.8793C46.4981 55.6211 46.7193 54.0687 46.7193 53.034C46.7193 51.3152 46.2851 49.8724 45.4698 48.6396C45.0546 48.0121 44.5406 47.439 43.9348 46.9116C43.6885 47.328 43.3695 47.7456 42.9703 48.1354C42.8319 48.2707 42.6839 48.4027 42.526 48.5301Z" fill="#222222"/>
<path fill-rule="evenodd" clip-rule="evenodd" d="M51.4314 32.063C51.826 33.6586 50.8525 35.2721 49.2568 35.6668C44.5979 36.8193 40.8125 37.4056 36.9565 37.3909C33.1088 37.3763 29.3348 36.7635 24.7116 35.6747C23.1117 35.2979 22.12 33.6953 22.497 32.0955C22.8738 30.4955 24.4762 29.5039 26.0762 29.8807C30.493 30.9209 33.7727 31.4263 36.9791 31.4385C40.1769 31.4507 43.4456 30.9725 47.8274 29.8886C49.4231 29.4938 51.0366 30.4673 51.4314 32.063Z" fill="#222222"/>
</svg>
