<svg width="40" height="40" viewBox="0 0 40 40" fill="none" xmlns="http://www.w3.org/2000/svg">
<circle cx="20" cy="20" r="20" fill="#60D669" fill-opacity="0.3"/>
<circle cx="20" cy="20" r="15" fill="#60D669"/>
<path d="M25.8752 14.092C25.1112 13.3203 24.2011 12.7084 23.1982 12.2921C22.1952 11.8757 21.1194 11.6633 20.0335 11.667C15.4835 11.667 11.7752 15.3754 11.7752 19.9254C11.7752 21.3837 12.1585 22.8004 12.8752 24.0504L11.7085 28.3337L16.0835 27.1837C17.2918 27.842 18.6502 28.192 20.0335 28.192C24.5835 28.192 28.2918 24.4837 28.2918 19.9337C28.2918 17.7254 27.4335 15.6504 25.8752 14.092ZM20.0335 26.792C18.8002 26.792 17.5918 26.4587 16.5335 25.8337L16.2835 25.6837L13.6835 26.367L14.3752 23.8337L14.2085 23.5754C13.5233 22.4812 13.1594 21.2164 13.1585 19.9254C13.1585 16.142 16.2418 13.0587 20.0252 13.0587C21.8585 13.0587 23.5835 13.7754 24.8752 15.0754C25.5147 15.712 26.0216 16.4693 26.3663 17.3032C26.7111 18.1372 26.8869 19.0313 26.8835 19.9337C26.9002 23.717 23.8168 26.792 20.0335 26.792ZM23.8002 21.6587C23.5918 21.5587 22.5752 21.0587 22.3918 20.9837C22.2002 20.917 22.0668 20.8837 21.9252 21.0837C21.7835 21.292 21.3918 21.7587 21.2752 21.892C21.1585 22.0337 21.0335 22.0504 20.8252 21.942C20.6168 21.842 19.9502 21.617 19.1668 20.917C18.5502 20.367 18.1418 19.692 18.0168 19.4837C17.9002 19.2754 18.0002 19.167 18.1085 19.0587C18.2002 18.967 18.3168 18.817 18.4168 18.7004C18.5168 18.5837 18.5585 18.492 18.6252 18.3587C18.6918 18.217 18.6585 18.1004 18.6085 18.0004C18.5585 17.9004 18.1418 16.8837 17.9752 16.467C17.8085 16.067 17.6335 16.117 17.5085 16.1087H17.1085C16.9668 16.1087 16.7502 16.1587 16.5585 16.367C16.3752 16.5754 15.8418 17.0754 15.8418 18.092C15.8418 19.1087 16.5835 20.092 16.6835 20.2254C16.7835 20.367 18.1418 22.4504 20.2085 23.342C20.7002 23.5587 21.0835 23.6837 21.3835 23.7754C21.8752 23.9337 22.3252 23.9087 22.6835 23.8587C23.0835 23.8004 23.9085 23.3587 24.0752 22.8754C24.2502 22.392 24.2502 21.9837 24.1918 21.892C24.1335 21.8004 24.0085 21.7587 23.8002 21.6587Z" fill="white"/>
</svg>
