<svg width="30" height="30" viewBox="0 0 30 30" fill="none" xmlns="http://www.w3.org/2000/svg">
<path fill-rule="evenodd" clip-rule="evenodd" d="M14.0247 4.41707C14.0247 3.95264 14.4013 3.57617 14.8656 3.57617H18.223C18.6874 3.57617 19.0639 3.95264 19.0639 4.41707V5.54893C19.0802 5.56347 19.097 5.57853 19.114 5.59417C19.2699 5.73687 19.4558 5.92599 19.654 6.16724C21.0711 5.91741 22.7816 6.0591 24.8214 6.81322L25.5872 7.09635L25.3268 7.87015C25.1392 8.42759 24.9327 8.87032 24.7448 9.27336L24.7397 9.2843C24.5494 9.69247 24.3782 10.061 24.2223 10.5242L23.9188 11.4261L23.2588 11.1089C25.9971 13.6901 25.2995 17.58 23.589 20.5385C22.6975 22.0802 21.4812 23.4819 20.1492 24.5062C18.8306 25.5202 17.3177 26.2248 15.8411 26.2248C14.3596 26.2248 12.8824 25.5156 11.61 24.5055C10.3256 23.4862 9.17028 22.0996 8.32122 20.5953C7.47451 19.0953 6.90337 17.4262 6.84989 15.8359C6.81861 14.904 6.96653 13.9855 7.34956 13.1542C7.34157 13.1443 7.33299 13.1338 7.32383 13.1228C7.24074 13.0226 7.11276 12.8824 6.94206 12.7349C6.59821 12.4376 6.10696 12.1318 5.47645 12.0308C5.25218 11.9948 5.05205 11.8697 4.92145 11.6839C4.79086 11.4981 4.741 11.2673 4.78321 11.0441C5.06432 9.55793 5.31819 8.67464 5.51471 8.14605C5.61335 7.88083 5.70131 7.69474 5.77707 7.56163C5.81525 7.49461 5.85183 7.43843 5.88681 7.39109C5.90447 7.36721 5.92196 7.34526 5.93945 7.32491C5.94819 7.31465 5.95702 7.3049 5.96585 7.2954L5.97914 7.28144L5.98578 7.27463L5.98915 7.27126L5.99083 7.26958C5.99083 7.26958 5.99251 7.26798 6.58215 7.86746C6.81987 7.06087 6.82029 7.06104 6.82029 7.06104L6.82206 7.06154L6.82576 7.06263L6.83762 7.06617L6.87823 7.0787C6.91262 7.08937 6.96148 7.10485 7.02261 7.12511C7.14497 7.16548 7.31743 7.22484 7.5243 7.3028C7.93592 7.45777 8.4936 7.68995 9.06601 7.99637C9.50756 8.23275 9.97721 8.52345 10.4001 8.87057L9.52917 7.529C9.28111 7.14689 9.38235 6.6368 9.75756 6.37848L12.4559 4.52067C12.8288 4.26403 13.3378 4.34846 13.6078 4.71173L14.0247 5.27286V4.41707ZM9.89463 10.7551C9.81205 10.6368 9.70669 10.5139 9.57593 10.3868C9.22998 10.0504 8.76572 9.74326 8.27228 9.47913C7.82534 9.2399 7.3805 9.0496 7.02715 8.91312C6.91103 9.25806 6.76059 9.79001 6.58896 10.5935C7.20274 10.8223 7.68827 11.1568 8.04212 11.4627C8.12638 11.5356 8.20391 11.6075 8.27463 11.6767C8.35191 11.6263 8.43499 11.5731 8.52346 11.5177C8.57467 11.4857 8.62781 11.4528 8.68272 11.4193C9.03363 11.1331 9.42019 10.9294 9.82366 10.7898C9.8472 10.7782 9.87083 10.7666 9.89463 10.7551ZM9.66944 12.7882C9.90859 12.6455 10.1771 12.4949 10.4642 12.3498C10.7612 12.2591 11.1005 12.2138 11.481 12.2125C12.251 12.2098 13.1097 12.3889 13.9391 12.6498C14.7621 12.9086 15.5175 13.2355 16.0702 13.5C16.1159 13.5219 16.1602 13.5432 16.2028 13.5641L15.6924 15.3965L13.8549 16.2275L11.6861 15.7164L11.3004 17.3534L12.8009 17.7069L12.3242 18.9119L13.888 19.5306L14.5974 17.7375L15.1041 17.5083L15.0662 17.6447L15.8354 19.4226L15.9836 21.5942L17.6614 21.4797L17.558 19.9641L19.1634 19.7777L18.9695 18.1071L17.1882 18.3139L16.8459 17.5229L17.8233 14.0141L17.887 13.9101L18.0078 13.7674L18.0109 13.7638L18.0239 13.7486C18.0358 13.7348 18.0543 13.7135 18.0789 13.6857C18.1278 13.6301 18.2007 13.5487 18.2933 13.4487C18.479 13.2481 18.7413 12.9758 19.0474 12.6885C19.5728 12.1958 20.1578 11.7267 20.6735 11.4594C20.8807 11.571 21.0552 11.6564 21.1991 11.7268C21.2626 11.7578 21.3201 11.786 21.3718 11.8121C21.5917 11.9235 21.7563 12.0205 21.9948 12.2317C23.9738 13.9848 23.7502 16.8998 22.133 19.6967C21.3454 21.0588 20.272 22.2902 19.1239 23.173C17.9624 24.0663 16.8049 24.543 15.8411 24.543C14.8821 24.543 13.7662 24.0699 12.6555 23.1883C11.5566 22.3161 10.5383 21.1017 9.78582 19.7687C9.03102 18.4313 8.57265 17.0266 8.53077 15.7794C8.48974 14.5577 8.84426 13.5293 9.66944 12.7882ZM7.42936 13.2598L7.43037 13.2613L7.42936 13.2598ZM7.42936 13.2598L7.43037 13.2613C7.55802 13.455 7.75966 13.5869 7.98822 13.6266C8.21854 13.6667 8.45517 13.609 8.64118 13.4674M17.1004 12.0694C17.1232 12.0396 17.1467 12.0091 17.171 11.978C17.5046 11.5504 17.9934 10.9887 18.6043 10.4749C19.6366 9.6067 21.1793 8.75587 22.9362 9.18885C23.0291 8.97333 23.1218 8.77437 23.2105 8.58433L23.2154 8.57357C23.2876 8.41901 23.3569 8.27009 23.4236 8.11956C20.5585 7.27572 18.7663 7.95298 17.6451 8.88024C16.6923 9.66825 16.1431 10.7051 15.8749 11.4125C16.2493 11.6054 16.6181 11.8041 16.9273 11.9738C16.9872 12.0068 17.0451 12.0388 17.1004 12.0694ZM17.7426 6.64496C17.5174 6.4883 17.3821 6.23081 17.3821 5.95483V5.25798H15.7065V6.27488C15.7065 6.44617 15.6542 6.61342 15.5566 6.75411L15.0044 7.55036C14.8501 7.77286 14.598 7.90749 14.3272 7.91186C14.0563 7.91632 13.8 7.79001 13.6385 7.57264L12.7417 6.36586L11.3854 7.2996L12.2011 8.55616C12.3769 8.82693 12.3781 9.16472 12.2262 9.43103C12.2222 9.44676 12.2169 9.4693 12.2108 9.49974C12.181 9.65043 12.1429 9.94096 12.126 10.4603C12.2285 10.4749 12.3387 10.4766 12.5531 10.4766C12.9414 10.4766 13.4512 10.4785 14.3016 10.6193C14.6937 9.64479 15.3329 8.69911 16.0539 7.94836C16.5406 7.44154 17.1205 6.96652 17.7426 6.64496ZM6.58215 7.86746L6.82029 7.06104C6.52732 6.97468 6.21022 7.0538 5.99251 7.26798L6.58215 7.86746Z" fill="#2EAD9F"/>
</svg>
