<svg width="30" height="30" viewBox="0 0 30 30" fill="none" xmlns="http://www.w3.org/2000/svg">
<path d="M3.72461 25.0005V15.7755C3.72461 15.2121 3.92121 14.7338 4.31442 14.3405C4.70679 13.9471 5.17864 13.7505 5.72995 13.7505H11.7957V15.0005C11.7957 15.8688 12.0974 16.6063 12.7009 17.213C13.3035 17.8213 14.0357 18.1255 14.8974 18.1255C15.7592 18.1255 16.4922 17.8213 17.0965 17.213C17.7008 16.6046 18.0033 15.8671 18.0042 15.0005V13.7505H24.0699C24.6212 13.7505 25.093 13.9484 25.4854 14.3442C25.8778 14.74 26.0744 15.215 26.0752 15.7692V25.0005H3.72461ZM14.8999 15.6255C14.7236 15.6255 14.5758 15.5655 14.4566 15.4455C14.3374 15.3255 14.2782 15.1771 14.2791 15.0005C14.2791 12.833 14.5257 10.6955 15.0191 8.58796C15.5125 6.48046 16.5729 4.71588 18.2003 3.29421C18.3411 3.19338 18.4938 3.1463 18.6585 3.15296C18.8224 3.16046 18.9627 3.2313 19.0795 3.36546C19.1954 3.50046 19.2454 3.65463 19.2297 3.82796C19.214 4.0013 19.1358 4.13838 18.995 4.23921C17.4826 5.53171 16.5253 7.14755 16.123 9.08671C15.7215 11.025 15.5208 12.9963 15.5208 15.0005C15.5208 15.178 15.4612 15.3263 15.3419 15.4455C15.2227 15.5646 15.075 15.6246 14.8987 15.6255M7.13556 19.2792C7.37562 19.2792 7.57553 19.2 7.7353 19.0417C7.89506 18.8834 7.97495 18.6834 7.97495 18.4417C7.97495 18.2 7.8963 17.9988 7.73902 17.838C7.58174 17.6771 7.38307 17.5967 7.14301 17.5967C6.90295 17.5967 6.70303 17.6759 6.54327 17.8342C6.3835 17.9925 6.30362 18.1925 6.30362 18.4342C6.30362 18.6759 6.38226 18.8771 6.53954 19.038C6.69682 19.1988 6.8955 19.2792 7.13556 19.2792ZM8.37726 22.4042C8.61732 22.4042 8.81723 22.325 8.977 22.1667C9.13676 22.0084 9.21664 21.8084 9.21664 21.5667C9.21664 21.325 9.138 21.1238 8.98072 20.963C8.82344 20.8021 8.62477 20.7217 8.38471 20.7217C8.14464 20.7217 7.94473 20.8009 7.78497 20.9592C7.6252 21.1175 7.54532 21.3175 7.54532 21.5592C7.54532 21.8009 7.62396 22.0021 7.78124 22.163C7.93852 22.3238 8.13719 22.4042 8.37726 22.4042ZM22.6568 19.2792C22.8969 19.2792 23.0968 19.2 23.2565 19.0417C23.4163 18.8834 23.4962 18.6834 23.4962 18.4417C23.4962 18.2 23.4175 17.9988 23.2603 17.838C23.103 17.6771 22.9043 17.5967 22.6642 17.5967C22.4242 17.5967 22.2243 17.6759 22.0645 17.8342C21.9047 17.9925 21.8249 18.1925 21.8249 18.4342C21.8249 18.6759 21.9035 18.8771 22.0608 19.038C22.2181 19.1988 22.4167 19.2792 22.6568 19.2792Z" fill="#2EAD9F"/>
</svg>
