<svg width="30" height="30" viewBox="0 0 30 30" fill="none" xmlns="http://www.w3.org/2000/svg">
<path fill-rule="evenodd" clip-rule="evenodd" d="M18.1611 12.531C18.1592 12.533 18.1574 12.535 18.1555 12.537C18.155 12.5376 18.1555 12.5371 18.1555 12.537C18.1557 12.5368 18.1562 12.5362 18.1565 12.5359L18.1586 12.5337L18.1599 12.5322L18.1611 12.531ZM17.6159 12.0312C17.0704 11.532 17.0706 11.5318 17.0708 11.5315L17.0722 11.53L17.0744 11.5277L17.0793 11.5223L17.0925 11.5083C17.1027 11.4977 17.1157 11.4843 17.1316 11.4687C17.1633 11.4374 17.2065 11.3969 17.261 11.3502C17.3695 11.2572 17.5248 11.138 17.7246 11.02C18.1247 10.7837 18.7132 10.5469 19.4591 10.5469C20.8021 10.5469 22.0395 11.6682 22.0395 13.5527C22.0395 15.1357 21.3347 16.2494 20.5283 16.9525C20.1307 17.2993 19.7085 17.5473 19.3309 17.7103C18.9706 17.8659 18.5937 17.9687 18.2862 17.9687C17.879 17.9687 17.5489 17.6365 17.5489 17.2266C17.5489 16.8166 17.879 16.4844 18.2862 16.4844C18.286 16.4844 18.286 16.4844 18.2862 16.4844C18.2877 16.4843 18.2997 16.4839 18.3233 16.4804C18.3494 16.4765 18.3844 16.4697 18.4277 16.4587C18.5147 16.4366 18.6246 16.4001 18.7496 16.3462C19.0002 16.2379 19.2902 16.0684 19.5628 15.8307C20.0969 15.3649 20.565 14.6416 20.565 13.5527C20.565 12.3943 19.8977 12.0312 19.4591 12.0312C19.0321 12.0312 18.699 12.1655 18.4707 12.3003C18.3564 12.3678 18.2708 12.4342 18.217 12.4803C18.1903 12.5033 18.172 12.5206 18.1625 12.53L18.1555 12.537C17.8808 12.8341 17.4191 12.8542 17.12 12.5804C16.8187 12.3047 16.7969 11.8348 17.0708 11.5315L17.6159 12.0312Z" fill="#2EAD9F"/>
<path d="M12.0871 12.7734C8.76939 12.7734 6.55762 15.7422 6.55762 17.2266C6.84478 17.247 7.29488 17.2266 7.29488 17.2266C7.29488 17.2266 8.37503 15.3711 10.9812 15.3711C12.4855 15.3711 13.8015 15.9938 14.3695 16.9287C14.6417 17.3766 14.1349 17.7742 13.6291 17.6456C12.3231 17.3135 10.0115 16.9724 8.03213 17.9687V19.4531C9.40388 18.664 11.1923 18.8188 12.5668 19.1369C13.8796 19.4407 14.6675 20.6948 14.6675 22.0508V25.3906H16.5706V18.4512C16.5706 16.4561 17.2985 15.9758 18.6405 14.971C18.9034 14.7742 18.9852 14.416 18.8387 14.121C18.6137 13.6679 17.9779 13.6013 17.5535 13.8735C17.1421 14.1373 16.5981 14.3506 15.9191 14.3506C15.0361 14.3506 14.17 12.7734 12.0871 12.7734Z" fill="#2EAD9F"/>
<path fill-rule="evenodd" clip-rule="evenodd" d="M12.4555 22.4219C12.4555 21.6021 11.7954 20.9375 10.981 20.9375H9.5065C9.27463 20.9375 9.15085 20.8905 9.09047 20.8591C9.0289 20.8272 8.97929 20.7833 8.93372 20.7196C8.88425 20.6505 8.84024 20.5578 8.80928 20.4486C8.77772 20.3372 8.76924 20.2425 8.76924 20.1953V17.9688C8.76924 17.2155 8.20878 16.5817 7.46555 16.4944L7.29473 17.9688V20.1953C7.29473 20.9375 7.73708 22.4219 9.5065 22.4219H10.981V26.875H21.3026V20.9859C21.3026 19.5571 22.0384 18.2601 22.9674 17.18C23.7025 16.3253 24.2733 15.3495 24.6048 14.3051C25.1571 12.5651 25.1129 10.7076 24.4783 8.9923C23.8437 7.27688 22.6505 5.78932 21.0654 4.73734C19.4803 3.68544 17.5825 3.12174 15.6372 3.12501C13.627 3.13949 11.6742 3.75224 10.0633 4.87405C8.45229 5.99579 7.2673 7.56804 6.68088 9.36176C6.49163 10.0285 6.28136 11.9898 6.28136 11.9898C5.94503 12.8331 5.5876 13.6568 5.23018 14.4806L4.7256 15.6769C4.5373 16.0009 4.40932 16.3523 4.34717 16.7163C4.33349 16.958 4.4161 17.1958 4.57911 17.3841C4.74212 17.5724 4.97406 17.6978 5.23018 17.7362C5.3143 17.7362 7.29473 17.9688 7.29473 17.9688C7.46555 16.4944 7.46562 16.4944 7.46555 16.4944L7.15361 16.4579C6.9662 16.4361 6.71517 16.4069 6.46133 16.3777C6.32199 16.3617 6.18124 16.3456 6.04942 16.3307C6.06122 16.3064 6.07235 16.2818 6.08282 16.2571L6.58445 15.0676L6.58548 15.0654C6.94018 14.2478 7.30505 13.407 7.64971 12.5429C7.7 12.4168 7.73288 12.2843 7.7474 12.1491L7.74748 12.1483L7.74947 12.1297L7.7561 12.0696C7.762 12.0169 7.77063 11.9403 7.78161 11.8461C7.80365 11.6571 7.83491 11.3994 7.8717 11.1226C7.94853 10.5443 8.03279 10.0188 8.092 9.79371C8.57711 8.33435 9.55258 7.03448 10.9021 6.0948C12.2617 5.14807 13.9228 4.6226 15.6437 4.60939C17.3058 4.60738 18.9176 5.08995 20.2538 5.97672C21.5899 6.86334 22.5762 8.10383 23.0965 9.51027C23.6161 10.9148 23.6518 12.4308 23.2003 13.8533C22.9366 14.6838 22.4736 15.4864 21.8527 16.2084C20.8224 17.4063 19.8281 19.0405 19.8281 20.9859V25.3906H12.4555V22.4219Z" fill="#2EAD9F"/>
</svg>
