<svg width="30" height="30" viewBox="0 0 30 30" fill="none" xmlns="http://www.w3.org/2000/svg">
<path fill-rule="evenodd" clip-rule="evenodd" d="M10.582 3.59961C10.582 3.70347 10.5824 6.03283 10.5833 6.12596C10.605 8.46572 10.9059 9.61268 11.4968 10.2256C12.0158 10.764 12.8907 11.0246 14.5338 11.0735C14.6639 9.75322 15.1869 8.69972 15.9556 7.94916C16.8402 7.08536 18.0117 6.66082 19.1712 6.66082C20.3307 6.66082 21.5022 7.08536 22.3868 7.94916C23.279 8.82035 23.8403 10.0997 23.8403 11.7306V17.1345C23.8403 18.6616 23.5884 20.2774 22.808 21.5316C21.9985 22.8327 20.6593 23.6781 18.6788 23.6781C16.6409 23.6781 15.2262 22.4571 13.9762 21.3714L13.9363 21.3367C12.6636 20.2312 11.5193 19.2371 9.8965 19.0114C9.21502 19.0186 8.74137 19.2025 8.40096 19.4535C8.04759 19.7141 7.79395 20.0796 7.61453 20.5023C7.24777 21.3664 7.23566 22.3621 7.25337 22.79C7.25692 22.8748 7.25872 23.794 7.26001 24.6578C7.26059 25.0973 7.2611 25.5326 7.26136 25.8579L7.26181 26.3982L5.97333 26.3996L5.97288 25.8591C5.97262 25.5339 5.97211 25.0989 5.97153 24.6597C5.97088 24.2204 5.97005 23.7773 5.96908 23.4356C5.96856 23.2647 5.96805 23.1196 5.9674 23.0134C5.96715 22.9601 5.96682 22.9172 5.9665 22.886C5.96631 22.8648 5.96612 22.8528 5.96605 22.8471C5.96599 22.8429 5.96599 22.8422 5.96605 22.844C5.94595 22.359 5.94795 21.1275 6.42971 19.9926C6.67452 19.4159 7.05379 18.839 7.63959 18.407C8.23165 17.9705 8.99147 17.7141 9.93773 17.7141C10.1921 17.7141 10.4273 17.7198 10.6508 17.7253C11.0579 17.7352 11.4264 17.7442 11.8022 17.7159C12.3506 17.6745 12.7817 17.5556 13.1323 17.291C13.7936 16.792 14.4217 15.5693 14.495 12.3705C12.7892 12.3215 11.4587 12.0486 10.5721 11.129C9.58649 10.1065 9.31636 8.45425 9.29491 6.13809C9.29394 6.03685 9.29349 3.69665 9.29349 3.59961H10.582ZM12.8777 18.8398C13.5473 19.2838 14.1377 19.7974 14.6871 20.2755C14.7309 20.3136 14.7745 20.3516 14.8179 20.3893C16.113 21.5142 17.1842 22.381 18.6788 22.381C20.2306 22.381 21.15 21.7527 21.7161 20.8431C22.3112 19.8866 22.5518 18.5549 22.5518 17.1345V11.7306C22.5518 10.4141 22.1069 9.48278 21.4897 8.88021C20.8651 8.27025 20.0241 7.95791 19.1712 7.95791C18.3183 7.95791 17.4773 8.27025 16.8527 8.88021C16.2356 9.48278 15.7906 10.4141 15.7906 11.7306C15.7906 15.4207 15.1546 17.3861 13.905 18.3289C13.5794 18.5747 13.2313 18.7352 12.8777 18.8398Z" fill="#2EAD9F"/>
<path d="M23.1962 15.4146C20.2683 17.9672 18.5603 12.862 14.9003 15.4146L13.9243 17.3796L11.4844 18.6078C11.4844 18.6078 16.1203 23.0291 18.8043 23.0291C21.4883 23.0291 23.6842 20.5728 23.1962 15.4146Z" fill="#2EAD9F"/>
</svg>
