<svg width="30" height="30" viewBox="0 0 30 30" fill="none" xmlns="http://www.w3.org/2000/svg">
<path d="M4.23167 7.9522C3.73464 8.40751 3.57879 8.96282 3.88375 9.45501C4.27871 10.0924 4.729 10.6306 5.12774 11.0469C4.78527 11.0748 4.48215 11.1947 4.25673 11.4134C4.16736 11.5001 4.09463 11.5981 4.03802 11.705C3.6435 11.2725 3.21562 10.7385 2.83021 10.1166C2.08418 8.91257 2.65421 7.70714 3.39596 7.0277C3.77336 6.68195 4.24004 6.41932 4.71552 6.30795C5.18522 6.19794 5.74792 6.22122 6.19764 6.58414C7.17819 7.37539 7.6784 7.4802 8.00919 7.50932C8.07109 7.51476 8.14224 7.51626 8.22152 7.51801C8.57187 7.52564 9.0809 7.5367 9.64786 7.90264L8.97759 8.95489C8.72367 8.79101 8.60391 8.78714 8.32781 8.77832C8.21699 8.77476 8.08103 8.77039 7.90104 8.75457C7.26846 8.69889 6.5425 8.46445 5.42101 7.55945C5.37044 7.51864 5.24508 7.46732 4.99694 7.52545C4.75459 7.5822 4.47366 7.73051 4.23167 7.9522Z" fill="#2EAD9F"/>
<path fill-rule="evenodd" clip-rule="evenodd" d="M8.00628 12.5894C9.0495 13.5575 9.34049 14.8805 8.65613 15.5445C7.97183 16.2084 6.57131 15.962 5.52808 14.9939C4.48483 14.0259 4.19387 12.7029 4.87821 12.0389C5.56254 11.3749 6.96301 11.6214 8.00628 12.5894ZM7.11226 13.4569C7.47788 13.7962 7.66898 14.161 7.72814 14.4302C7.76099 14.5794 7.74919 14.6587 7.73857 14.693C7.70263 14.7039 7.61931 14.7168 7.46136 14.689C7.17646 14.6389 6.78774 14.4657 6.42212 14.1265C6.05649 13.7872 5.86541 13.4224 5.80622 13.1532C5.7734 13.004 5.78516 12.9247 5.7958 12.8904C5.83174 12.8795 5.91503 12.8665 6.07301 12.8944C6.35793 12.9445 6.74664 13.1176 7.11226 13.4569ZM7.72939 14.7135C7.72907 14.714 7.72901 14.7143 7.72907 14.7144C7.72926 14.7145 7.7305 14.7128 7.73237 14.7091C7.73187 14.7097 7.73143 14.7103 7.73106 14.7108C7.73094 14.711 7.73119 14.7107 7.73106 14.7108C7.73044 14.7118 7.72963 14.713 7.72939 14.7135ZM7.75534 14.6868C7.75881 14.6843 7.76074 14.6834 7.7608 14.6835C7.76092 14.6837 7.75925 14.685 7.75534 14.6868ZM5.80345 12.8723C5.80491 12.8702 5.80543 12.8691 5.8053 12.869C5.80512 12.8689 5.80384 12.8706 5.80201 12.8743C5.80257 12.8735 5.80304 12.8729 5.80345 12.8723ZM5.779 12.8966C5.77557 12.8991 5.77364 12.9 5.77354 12.8999C5.77342 12.8997 5.77514 12.8984 5.779 12.8966Z" fill="#2EAD9F"/>
<path d="M25.9164 9.45501C26.2214 8.96282 26.0656 8.40751 25.5685 7.9522C25.3266 7.73051 25.0456 7.5822 24.8033 7.52545C24.5551 7.46732 24.4297 7.51864 24.3792 7.55945C23.2577 8.46445 22.5317 8.69889 21.8992 8.75457C21.7192 8.77039 21.5832 8.77476 21.4724 8.77832C21.1963 8.78714 21.0765 8.79101 20.8226 8.95489L20.1523 7.90264C20.7193 7.5367 21.2283 7.52564 21.5787 7.51801C21.658 7.51626 21.7291 7.51476 21.791 7.50932C22.1218 7.4802 22.622 7.37539 23.6026 6.58414C24.0523 6.22122 24.615 6.19794 25.0847 6.30795C25.5602 6.41932 26.0268 6.68195 26.4042 7.0277C27.146 7.70714 27.716 8.91257 26.97 10.1166C26.5765 10.7516 26.1387 11.2949 25.7373 11.7321C25.6789 11.6146 25.6015 11.5074 25.5047 11.4134C25.2871 11.2023 24.9972 11.0833 24.6693 11.0501C25.0689 10.6334 25.5205 10.0941 25.9164 9.45501Z" fill="#2EAD9F"/>
<path fill-rule="evenodd" clip-rule="evenodd" d="M21.7566 12.5894C20.7134 13.5575 20.4224 14.8805 21.1067 15.5445C21.791 16.2084 23.1915 15.962 24.2348 14.9939C25.278 14.0259 25.569 12.7029 24.8847 12.0389C24.2003 11.3749 22.7999 11.6214 21.7566 12.5894ZM22.6506 13.4569C22.285 13.7962 22.0939 14.161 22.0347 14.4302C22.0019 14.5794 22.0137 14.6587 22.0243 14.693C22.0602 14.7039 22.1436 14.7168 22.3015 14.689C22.5864 14.6389 22.9751 14.4657 23.3407 14.1265C23.7064 13.7872 23.8975 13.4224 23.9566 13.1532C23.9895 13.004 23.9777 12.9247 23.9671 12.8904C23.9311 12.8795 23.8478 12.8665 23.6898 12.8944C23.4049 12.9445 23.0162 13.1176 22.6506 13.4569ZM22.0318 14.7108C22.0334 14.713 22.0339 14.7143 22.0338 14.7144C22.0336 14.7145 22.0324 14.7128 22.0305 14.7091C22.031 14.7097 22.0314 14.7103 22.0318 14.7108ZM22.0048 14.6849L22.0075 14.6868L22.0057 14.6859L22.0034 14.6846C22.0024 14.684 22.002 14.6836 22.0021 14.6835M22.0048 14.6849L22.0027 14.6837L22.0048 14.6849ZM23.9576 12.869C23.9574 12.8691 23.9583 12.871 23.9608 12.8743C23.959 12.8706 23.9577 12.8689 23.9576 12.869ZM23.9839 12.8966C23.9873 12.8991 23.9892 12.9 23.9893 12.8999C23.9895 12.8997 23.9877 12.8984 23.9839 12.8966Z" fill="#2EAD9F"/>
<path fill-rule="evenodd" clip-rule="evenodd" d="M11.1826 7.79644C12.0044 7.19869 13.2227 6.875 14.9067 6.875C16.5817 6.875 17.7993 7.17 18.6207 7.72744C19.4772 8.30875 19.8387 9.13194 19.8655 9.99256C19.8913 10.8197 19.611 11.6617 19.2429 12.3805C18.8715 13.1056 18.3824 13.7608 17.9221 14.2264C17.637 14.5149 17.4314 14.9935 17.3052 15.688C17.1805 16.3741 17.1471 17.187 17.1391 18.0682C17.1366 18.3446 17.1366 18.6298 17.1367 18.9181V18.9187C17.1368 19.5268 17.1369 20.1489 17.1131 20.7317C17.078 21.5931 16.9894 22.4507 16.7445 23.1686C16.6983 23.3041 16.6017 23.5082 16.3872 23.64C16.1465 23.7881 15.8999 23.7609 15.7389 23.7063C15.5927 23.6566 15.4761 23.5731 15.4019 23.5143C15.3214 23.4505 15.2456 23.3786 15.1823 23.3163C15.1311 23.2658 15.0875 23.2216 15.0481 23.1815C14.9909 23.1234 14.9426 23.0744 14.8928 23.0286C14.8283 23.0799 14.7708 23.1308 14.7033 23.1904C14.6513 23.2363 14.5935 23.2874 14.5221 23.3479C14.4002 23.4512 14.1741 23.6406 13.9183 23.7147C13.7675 23.7584 13.5398 23.7819 13.3092 23.6591C13.0845 23.5394 12.9702 23.3407 12.9123 23.1853C12.648 22.4768 12.5107 21.6013 12.4247 20.7091C12.3547 19.9834 12.3157 19.2093 12.2782 18.4643L12.2782 18.4628C12.2694 18.2876 12.2606 18.1137 12.2515 17.9428C12.2033 17.0298 12.1464 16.1927 12.0287 15.5103C11.9052 14.7944 11.7362 14.3953 11.5694 14.2264C11.1926 13.8453 10.7729 13.2274 10.4556 12.5249C10.1384 11.8224 9.89542 10.9736 9.93857 10.1329C9.98302 9.268 10.3339 8.41363 11.1826 7.79644ZM14.7766 22.9339C14.7746 22.9329 14.7743 22.9326 14.7759 22.9335L14.7766 22.9339Z" fill="#2EAD9F"/>
</svg>
