<svg width="30" height="30" viewBox="0 0 30 30" fill="none" xmlns="http://www.w3.org/2000/svg">
<path fill-rule="evenodd" clip-rule="evenodd" d="M18.9016 7.08606C18.5406 6.88635 18.2396 6.5927 18.03 6.2358C17.8204 5.87889 17.7098 5.47186 17.71 5.05724V4.2002H19.2426V5.05724C19.2426 5.26183 19.3233 5.45804 19.467 5.60271C19.6107 5.74738 19.8056 5.82865 20.0088 5.82865H23.074C23.4805 5.82865 23.8703 5.9912 24.1577 6.28054C24.4451 6.56987 24.6066 6.9623 24.6066 7.37148V14.8542C24.9225 15.074 25.1805 15.3679 25.3585 15.7104C25.5364 16.053 25.629 16.434 25.6281 16.8205C25.6281 18.1196 24.6028 19.1757 23.3292 19.2004V20.8296H25.6281V22.3724H23.9652C24.2148 22.6802 24.3726 23.0529 24.4201 23.4473C24.4677 23.8417 24.4031 24.2416 24.2339 24.6006C24.0647 24.9595 23.7979 25.2628 23.4643 25.4751C23.1307 25.6875 22.7442 25.8002 22.3495 25.8002C21.9548 25.8002 21.5682 25.6875 21.2347 25.4751C20.9011 25.2628 20.6342 24.9595 20.465 24.6006C20.2958 24.2416 20.2313 23.8417 20.2788 23.4473C20.3264 23.0529 20.4842 22.6802 20.7338 22.3724H9.06619C9.31579 22.6802 9.47353 23.0529 9.5211 23.4473C9.56867 23.8417 9.50411 24.2416 9.33491 24.6006C9.16572 24.9595 8.89884 25.2628 8.56527 25.4751C8.2317 25.6875 7.84513 25.8002 7.45046 25.8002C7.05579 25.8002 6.66922 25.6875 6.33565 25.4751C6.00208 25.2628 5.7352 24.9595 5.566 24.6006C5.39681 24.2416 5.33225 23.8417 5.37981 23.4473C5.42738 23.0529 5.58513 22.6802 5.83473 22.3724H4.17188V20.8296H5.70446V14.3474L5.46308 14.1036C5.01726 13.6505 4.76716 13.0385 4.76716 12.4007C4.76716 11.763 5.01726 11.151 5.46308 10.6978C5.73586 10.4199 6.07271 10.2142 6.4436 10.0992C6.81449 9.98407 7.2079 9.96316 7.58877 10.0383L8.08227 9.54147C8.53597 9.0854 9.15101 8.82937 9.79218 8.82966C10.4334 8.82995 11.0482 9.08654 11.5015 9.54302L12.5743 10.623C12.7988 10.849 12.977 11.1173 13.0985 11.4127C13.22 11.708 13.2825 12.0245 13.2824 12.3442C13.2823 12.6638 13.2197 12.9804 13.098 13.2756C12.9764 13.5709 12.7982 13.8392 12.5735 14.0651L12.3536 14.2864L12.4517 14.3867C12.4862 14.4207 12.5329 14.4407 12.5819 14.4407H23.074V7.37071H20.4341V7.79962H20.6893C20.8925 7.79962 21.0875 7.88089 21.2312 8.02556C21.3749 8.17023 21.4556 8.36644 21.4556 8.57103V11.8279C21.4556 12.0325 21.3749 12.2288 21.2312 12.3734C21.0875 12.5181 20.8925 12.5994 20.6893 12.5994H18.6471C18.4439 12.5994 18.249 12.5181 18.1053 12.3734C17.9616 12.2288 17.8808 12.0325 17.8808 11.8279V8.57103C17.8808 8.36644 17.9616 8.17023 18.1053 8.02556C18.249 7.88089 18.4439 7.79962 18.6471 7.79962H18.9023L18.9016 7.08606ZM11.2731 13.191L11.49 12.9727C11.6559 12.8056 11.749 12.5791 11.749 12.3429C11.749 12.1066 11.6559 11.8801 11.49 11.713L10.4172 10.633C10.2512 10.4661 10.0262 10.3723 9.79164 10.3722C9.55705 10.372 9.33197 10.4656 9.1658 10.6323L8.95661 10.8429L11.2731 13.191ZM10.2961 18.9998C10.3581 19.0633 10.432 19.1137 10.5136 19.1481C10.5952 19.1826 10.6827 19.2003 10.7712 19.2004H21.7966V20.828H7.23705V15.9002L10.2961 18.9998Z" fill="#2EAD9F"/>
</svg>
