<svg width="30" height="30" viewBox="0 0 30 30" fill="none" xmlns="http://www.w3.org/2000/svg">
<path fill-rule="evenodd" clip-rule="evenodd" d="M26.0762 8.75C26.0762 10.0761 25.5529 11.3479 24.6214 12.2855C23.69 13.2232 22.4267 13.75 21.1094 13.75C19.7921 13.75 18.5288 13.2232 17.5973 12.2855C16.6659 11.3479 16.1426 10.0761 16.1426 8.75C16.1426 7.42392 16.6659 6.15215 17.5973 5.21447C18.5288 4.27678 19.7921 3.75 21.1094 3.75C22.4267 3.75 23.69 4.27678 24.6214 5.21447C25.5529 6.15215 26.0762 7.42392 26.0762 8.75ZM23.7679 9.36562C23.7309 9.52703 23.6318 9.66705 23.4923 9.75494C23.3529 9.84284 23.1844 9.87141 23.0241 9.83437L18.9165 8.88438C18.756 8.84724 18.6167 8.74743 18.5292 8.6069C18.4418 8.46636 18.4134 8.29662 18.4503 8.135C18.4872 7.97338 18.5863 7.83314 18.7259 7.74511C18.8655 7.65709 19.0341 7.62849 19.1947 7.66563L23.3022 8.61625C23.3817 8.63467 23.4567 8.66867 23.5231 8.7163C23.5895 8.76394 23.646 8.82427 23.6892 8.89385C23.7324 8.96344 23.7616 9.04092 23.7751 9.12187C23.7886 9.20281 23.7862 9.28564 23.7679 9.36562Z" fill="#2EAD9F"/>
<path d="M10.4168 5.77821C10.0151 4.82071 8.67032 4.72446 8.1308 5.61383L3.90654 12.572C3.41917 13.3745 3.96365 14.3995 4.91418 14.4676L12.2812 14.9963C13.2311 15.0651 13.9227 14.1288 13.5601 13.2651L10.4168 5.77821Z" fill="#2EAD9F"/>
<path fill-rule="evenodd" clip-rule="evenodd" d="M21.9689 22.725C22.8643 22.3047 23.5572 21.5435 23.8952 20.6089C24.2331 19.6744 24.1884 18.6429 23.7709 17.7415C23.3534 16.8401 22.5974 16.1426 21.669 15.8024C20.7406 15.4622 19.716 15.5072 18.8206 15.9275L12.0682 19.0962C11.1727 19.5165 10.4798 20.2777 10.1418 21.2123C9.80376 22.1469 9.84842 23.1785 10.2659 24.08C10.6834 24.9814 11.4395 25.679 12.368 26.0193C13.2964 26.3596 14.3211 26.3146 15.2166 25.8943L21.9689 22.725ZM18.5903 22.9312L21.4443 21.5918C22.0346 21.3075 22.4895 20.8001 22.7102 20.18C22.9309 19.5599 22.8996 18.8771 22.6231 18.2801C22.3465 17.6831 21.847 17.2201 21.2333 16.9917C20.6195 16.7634 19.941 16.7881 19.3452 17.0606L16.4912 18.4L18.5903 22.9312Z" fill="#2EAD9F"/>
</svg>
