<svg width="30" height="30" viewBox="0 0 30 30" fill="none" xmlns="http://www.w3.org/2000/svg">
<path d="M7.73228 18.0297C1.23438 14.9027 3.59902 4.82455 8.04338 3.23892C9.88699 2.58118 11.9757 4.92439 11.9878 6.35413C11.9999 7.78378 10.4949 9.10126 10.8375 10.8755C11.18 12.6496 11.5815 15.6398 10.7079 17.0382C9.83427 18.4368 8.93385 18.608 7.73228 18.0297Z" fill="#2EAD9F"/>
<path fill-rule="evenodd" clip-rule="evenodd" d="M11.7814 13.6287C11.7814 13.6287 11.7827 13.6287 11.806 12.8012C11.8293 11.9736 11.8305 11.9736 11.8305 11.9736L11.8319 11.9737L11.8345 11.9738L11.8402 11.974L11.8532 11.9746C11.8625 11.9751 11.8731 11.9758 11.8851 11.9768C11.909 11.9787 11.9381 11.9817 11.9718 11.9864C12.0388 11.9957 12.1254 12.0119 12.225 12.0404C12.4236 12.0972 12.6826 12.2053 12.9397 12.4111C13.4866 12.849 13.8718 13.6008 13.8718 14.757V26.875H12.2271V14.757C12.2271 13.9929 11.9906 13.7667 11.9158 13.7069C11.862 13.6637 11.8101 13.643 11.7756 13.6331C11.7586 13.6282 11.7471 13.6266 11.7471 13.6266C11.7471 13.6266 11.7491 13.6269 11.7548 13.6273L11.7659 13.6281L11.7736 13.6284L11.7779 13.6286L11.7803 13.6286L11.7814 13.6287Z" fill="#2EAD9F"/>
<path d="M21.7976 18.0297C28.2955 14.9027 25.9309 4.82455 21.4865 3.23892C19.6429 2.58118 17.5542 4.92439 17.5421 6.35413C17.53 7.78378 19.035 9.10126 18.6924 10.8755C18.3499 12.6496 17.9484 15.6398 18.822 17.0382C19.6956 18.4368 20.596 18.608 21.7976 18.0297Z" fill="#2EAD9F"/>
<path fill-rule="evenodd" clip-rule="evenodd" d="M17.7485 13.6287C17.7485 13.6287 17.7474 13.6287 17.724 12.8012C17.7007 11.9736 17.6994 11.9736 17.6994 11.9736L17.6982 11.9737L17.6955 11.9738L17.6898 11.974L17.6768 11.9746C17.6675 11.9751 17.6568 11.9758 17.6449 11.9768C17.621 11.9787 17.5919 11.9817 17.5582 11.9864C17.4911 11.9957 17.4046 12.0119 17.305 12.0404C17.1063 12.0972 16.8474 12.2053 16.5904 12.4111C16.0434 12.849 15.6582 13.6008 15.6582 14.757V26.875H17.303V14.757C17.303 13.9929 17.5395 13.7667 17.6142 13.7069C17.6681 13.6637 17.72 13.643 17.7544 13.6331C17.7714 13.6282 17.783 13.6266 17.783 13.6266C17.783 13.6266 17.7809 13.6269 17.7752 13.6273L17.7641 13.6281L17.7564 13.6284L17.7521 13.6286L17.7498 13.6286L17.7485 13.6287Z" fill="#2EAD9F"/>
</svg>
