<svg width="30" height="30" viewBox="0 0 30 30" fill="none" xmlns="http://www.w3.org/2000/svg">
<path fill-rule="evenodd" clip-rule="evenodd" d="M18.3679 14.2939C19.0878 14.2939 19.7909 14.0966 20.3853 13.7278C20.9889 14.0959 21.7013 14.2889 22.4282 14.2812L24.7372 13.5176C25.3878 13.0302 25.8345 12.3544 26.0025 11.6036C26.1704 10.8526 26.0494 10.0721 25.6598 9.39251C25.2701 8.71295 24.6354 8.17557 23.862 7.87044C23.6853 7.14338 23.2405 6.49313 22.6012 6.02753L20.3473 5.3107H20.0935C19.5922 4.64595 18.8395 4.17178 17.9787 3.97833L13.1464 3.73145C12.3432 3.7921 11.5857 4.09656 10.996 4.59583C10.7174 4.53613 10.4322 4.50518 10.1459 4.50358C9.45273 4.50488 8.77477 4.68847 8.1939 5.0322C7.61303 5.37593 7.15404 5.8651 6.87236 6.4407L5.03629 7.62263C4.57943 8.18513 4.33348 8.8662 4.33469 9.56538C4.33017 9.8577 4.37292 10.1491 4.46157 10.4301C3.97986 10.9982 3.72084 11.6962 3.72565 12.4133C3.7245 13.2451 4.07414 14.0456 4.70265 14.6502C4.75337 15.2456 4.98233 15.8172 5.36476 16.3029C5.74719 16.7886 6.26852 17.1701 6.87236 17.4059C7.56808 17.8023 8.15721 18.3354 8.59633 18.9659C9.03552 19.5964 9.31354 20.3084 9.41002 21.0495H11.0977V16.21L9.45758 14.7424L8.34787 15.8596C8.10537 16.1036 7.71231 16.1036 7.4698 15.8596C7.22736 15.6155 7.22736 15.2198 7.4698 14.9757L8.76365 13.6732L8.36935 11.4903L6.61527 10.6073C6.30857 10.4529 6.18426 10.0775 6.33762 9.76876C6.49097 9.46007 6.86385 9.33488 7.17055 9.48926L8.88832 10.3539L11.0375 8.97713L10.3753 7.19957C10.2549 6.87638 10.4176 6.51613 10.7386 6.39488C11.0597 6.27369 11.4176 6.43745 11.538 6.76063L12.2443 8.65663H13.1128L13.5158 7.84513L12.9258 6.45926C12.7908 6.142 12.9368 5.77457 13.2519 5.63859C13.5671 5.50263 13.9321 5.6496 14.0671 5.96686L14.5798 7.17113L16.6285 7.54607C16.6399 7.53526 16.6519 7.52482 16.6644 7.51482L17.9343 6.49207C18.2021 6.27645 18.5928 6.32013 18.807 6.58969C19.0212 6.85919 18.9777 7.25251 18.71 7.46813L17.7963 8.20401L18.8699 9.59344L19.2908 8.74607C19.396 8.53432 19.611 8.40057 19.8461 8.40057H21.37C21.7129 8.40057 21.9909 8.68038 21.9909 9.02557C21.9909 9.37076 21.7129 9.65057 21.37 9.65057H20.2298L19.9695 10.1747L21.2507 10.4613C21.3002 10.4724 21.3482 10.4895 21.3937 10.5124L22.4096 11.0238C22.7163 11.1781 22.8405 11.5535 22.6873 11.8623C22.5339 12.171 22.161 12.2961 21.8543 12.1418L20.9067 11.6648L18.6954 11.1701C18.5545 11.1386 18.4287 11.0585 18.3401 10.9438L16.7078 8.83107L14.6818 8.46026C14.6435 8.4962 14.6001 8.52763 14.5523 8.55344L14.1173 9.42919V9.93463H15.0204C15.1168 9.93463 15.2119 9.95726 15.298 10.0006L17.3299 11.0234C17.6366 11.1778 17.7609 11.5531 17.6076 11.8619C17.4542 12.1706 17.0813 12.2958 16.7746 12.1414L14.8738 11.1846H14.1173V12.3498C14.1173 12.695 13.8393 12.9748 13.4965 12.9748C13.1536 12.9748 12.8756 12.695 12.8756 12.3498V9.90663H11.8994L9.61024 11.3731L10.0052 13.56L12.1311 15.4622C12.2636 15.5808 12.3394 15.7508 12.3394 15.9293V21.0495H14.1506V17.5904C14.1497 16.9763 14.3383 16.3741 14.6949 15.8524C15.0514 15.3307 15.5618 14.9102 16.168 14.6386C16.5089 14.5201 16.5928 14.3606 16.6956 14.1651C16.764 14.0348 16.841 13.8885 17.0079 13.7278C17.1529 13.8177 17.2652 13.8975 17.3627 13.9666C17.6648 14.1811 17.8236 14.2939 18.3679 14.2939Z" fill="#2EAD9F"/>
<path fill-rule="evenodd" clip-rule="evenodd" d="M14.2793 23.7506H9.3125V22.5H14.2793V23.7506Z" fill="#2EAD9F"/>
<path fill-rule="evenodd" clip-rule="evenodd" d="M14.2793 26.2506H9.3125V25H14.2793V26.2506Z" fill="#2EAD9F"/>
</svg>
