<svg width="30" height="30" viewBox="0 0 30 30" fill="none" xmlns="http://www.w3.org/2000/svg">
<path fill-rule="evenodd" clip-rule="evenodd" d="M4.18436 13.8677C5.35869 12.5383 7.14094 11.0154 9.42875 9.97881C8.22987 11.3082 7.5 13.0689 7.5 15C7.5 16.9311 8.22987 18.6918 9.42875 20.0212C7.14094 18.9846 5.35869 17.4617 4.18436 16.1323C3.60521 15.4768 3.60521 14.5232 4.18436 13.8677ZM3.24753 13.0401C5.37747 10.6289 9.42581 7.55794 14.8886 7.50081C14.9257 7.50025 14.9628 7.5 15 7.5H15.0182H15.0436C20.5847 7.5 24.6895 10.6063 26.8396 13.0401C27.8362 14.1684 27.8362 15.8316 26.8396 16.9599C24.6895 19.3937 20.5847 22.5 15.0436 22.5H15.0182H15C14.9628 22.5 14.9257 22.4997 14.8886 22.4992C9.42581 22.4421 5.37747 19.3711 3.24754 16.9599C2.25083 15.8316 2.25082 14.1684 3.24753 13.0401ZM15.0177 8.75C14.9798 8.75013 14.9419 8.75031 14.9041 8.75075C11.4966 8.80194 8.75 11.5802 8.75 15C8.75 18.4198 11.4966 21.1981 14.9041 21.2492C14.9419 21.2497 14.9798 21.2499 15.0177 21.25C18.4614 21.2404 21.25 18.4459 21.25 15C21.25 11.5541 18.4614 8.75956 15.0177 8.75ZM22.5 15C22.5 16.9631 21.7458 18.7499 20.5114 20.0868C22.8699 19.0496 24.7034 17.49 25.9027 16.1323C26.4819 15.4768 26.4819 14.5232 25.9027 13.8677C24.7034 12.51 22.8699 10.9504 20.5114 9.91325C21.7458 11.2501 22.5 13.0369 22.5 15ZM15.0435 18.75C17.1146 18.75 18.7935 17.0711 18.7935 15C18.7935 14.4211 18.6623 13.8728 18.4281 13.3833C18.2018 13.6098 17.8891 13.75 17.5436 13.75C16.8532 13.75 16.2936 13.1904 16.2936 12.5C16.2936 12.1545 16.4337 11.8418 16.6603 11.6155C16.1707 11.3812 15.6224 11.25 15.0435 11.25C12.9724 11.25 11.2935 12.9289 11.2935 15C11.2935 17.0711 12.9724 18.75 15.0435 18.75Z" fill="#2EAD9F"/>
</svg>
