<svg width="30" height="30" viewBox="0 0 30 30" fill="none" xmlns="http://www.w3.org/2000/svg">
<path fill-rule="evenodd" clip-rule="evenodd" d="M10.1287 3.59112C9.6038 3.49287 9.11225 3.89121 9.11225 4.42526C9.11225 4.89067 8.7349 5.26802 8.26949 5.26802H8.02341C7.54232 5.26802 7.15234 5.658 7.15234 6.13909V6.90041C7.15234 7.38141 7.54232 7.77148 8.02341 7.77148H8.24118C8.72227 7.77148 9.11225 8.16146 9.11225 8.64255V8.97181C9.11225 9.37015 9.38376 9.7191 9.77113 9.81205C13.8392 10.7887 16.3324 10.7897 20.2222 9.81684C20.6052 9.72111 20.8717 9.37434 20.8717 8.97957V8.64255C20.8717 8.16146 21.2617 7.77148 21.7428 7.77148H21.9605C22.4416 7.77148 22.8316 7.38141 22.8316 6.90041V6.13909C22.8316 5.658 22.4416 5.26802 21.9605 5.26802H21.7133C21.2485 5.26802 20.8717 4.89128 20.8717 4.42648C20.8717 3.89225 20.3794 3.49435 19.8545 3.59339C16.2028 4.28232 13.7798 4.27413 10.1287 3.59112ZM11.9432 5.99301C11.9432 5.51192 11.5533 5.12194 11.0722 5.12194C10.5911 5.12194 10.2011 5.51192 10.2011 5.99301V7.94439C10.2011 8.42548 10.5911 8.81546 11.0722 8.81546C11.5533 8.81546 11.9432 8.42548 11.9432 7.94439V5.99301ZM9.11225 12.2649C9.11225 11.7308 9.6038 11.3325 10.1287 11.4308C13.7798 12.1138 16.2028 12.122 19.8545 11.433C20.3794 11.334 20.8717 11.7319 20.8717 12.2661C20.8717 12.7309 21.2485 13.1077 21.7133 13.1077H21.9605C22.4416 13.1077 22.8316 13.4976 22.8316 13.9787V14.74C22.8316 15.221 22.4416 15.6111 21.9605 15.6111H21.7428C21.2617 15.6111 20.8717 16.0011 20.8717 16.4822V16.8192C20.8717 17.214 20.6052 17.5607 20.2222 17.6565C16.3324 18.6293 13.8392 18.6283 9.77113 17.6517C9.38376 17.5587 9.11225 17.2098 9.11225 16.8115V16.4822C9.11225 16.0011 8.72227 15.6111 8.24118 15.6111H8.02341C7.54232 15.6111 7.15234 15.221 7.15234 14.74V13.9787C7.15234 13.4976 7.54232 13.1077 8.02341 13.1077H8.26949C8.7349 13.1077 9.11225 12.7303 9.11225 12.2649ZM11.0722 12.9616C11.5533 12.9616 11.9432 13.3516 11.9432 13.8326V15.784C11.9432 16.2651 11.5533 16.6551 11.0722 16.6551C10.5911 16.6551 10.2011 16.2651 10.2011 15.784V13.8326C10.2011 13.3516 10.5911 12.9616 11.0722 12.9616ZM10.1287 19.2704C9.6038 19.1721 9.11225 19.5705 9.11225 20.1045C9.11225 20.5699 8.7349 20.9473 8.26949 20.9473H8.02341C7.54232 20.9473 7.15234 21.3373 7.15234 21.8184V22.5797C7.15234 23.0607 7.54232 23.4508 8.02341 23.4508H8.24118C8.72227 23.4508 9.11225 23.8407 9.11225 24.3218V24.6511C9.11225 25.0494 9.38376 25.3984 9.77113 25.4913C13.8392 26.468 16.3324 26.4689 20.2222 25.4961C20.6052 25.4004 20.8717 25.0536 20.8717 24.6588V24.3218C20.8717 23.8407 21.2617 23.4508 21.7428 23.4508H21.9605C22.4416 23.4508 22.8316 23.0607 22.8316 22.5797V21.8184C22.8316 21.3373 22.4416 20.9473 21.9605 20.9473H21.7133C21.2485 20.9473 20.8717 20.5706 20.8717 20.1058C20.8717 19.5715 20.3794 19.1736 19.8545 19.2727C16.2028 19.9616 13.7798 19.9534 10.1287 19.2704ZM11.9432 21.6723C11.9432 21.1912 11.5533 20.8012 11.0722 20.8012C10.5911 20.8012 10.2011 21.1912 10.2011 21.6723V23.6237C10.2011 24.1048 10.5911 24.4947 11.0722 24.4947C11.5533 24.4947 11.9432 24.1048 11.9432 23.6237V21.6723Z" fill="#2EAD9F"/>
</svg>
