<svg width="30" height="30" viewBox="0 0 30 30" fill="none" xmlns="http://www.w3.org/2000/svg">
<path fill-rule="evenodd" clip-rule="evenodd" d="M14.9805 10.1389C17.09 10.1389 18.8001 8.4289 18.8001 6.31951C18.8001 4.21002 17.09 2.5 14.9805 2.5C12.8712 2.5 11.1611 4.21002 11.1611 6.31951C11.1611 8.4289 12.8712 10.1389 14.9805 10.1389Z" fill="#2EAD9F"/>
<path fill-rule="evenodd" clip-rule="evenodd" d="M14.9805 8.79962C16.3503 8.79962 17.4608 7.68925 17.4608 6.31951C17.4608 4.94967 16.3503 3.8393 14.9805 3.8393C13.6108 3.8393 12.5004 4.94967 12.5004 6.31951C12.5004 7.68925 13.6108 8.79962 14.9805 8.79962ZM18.8001 6.31951C18.8001 8.4289 17.09 10.1389 14.9805 10.1389C12.8712 10.1389 11.1611 8.4289 11.1611 6.31951C11.1611 4.21002 12.8712 2.5 14.9805 2.5C17.09 2.5 18.8001 4.21002 18.8001 6.31951Z" fill="#2EAD9F"/>
<path fill-rule="evenodd" clip-rule="evenodd" d="M11.5088 15.6947V13.6113H18.4533V15.6947H11.5088ZM11.5088 17.0837V18.431C11.5088 18.8708 11.905 20.0004 13.1203 20.5417C13.2594 20.6035 13.4158 20.6812 13.5563 20.751L13.639 20.7919C13.8116 20.8773 13.9787 20.958 14.1477 21.0296C14.5002 21.1789 14.775 21.2502 14.9811 21.2502C15.187 21.2502 15.462 21.1789 15.8144 21.0296C15.9834 20.958 16.1504 20.8773 16.3231 20.7919L16.4058 20.751C16.5463 20.6812 16.7027 20.6035 16.8418 20.5417C18.0572 20.0004 18.4533 18.8708 18.4533 18.431V17.0837H11.5088Z" fill="#2EAD9F"/>
<path fill-rule="evenodd" clip-rule="evenodd" d="M13.6652 19.3182C13.8302 19.3917 14.0077 19.4798 14.141 19.546L14.2325 19.5914C14.2327 19.5915 14.233 19.5917 14.2333 19.5917C14.4014 19.6749 14.5393 19.7409 14.6702 19.7964C14.8045 19.8534 14.8994 19.8847 14.9604 19.9008C14.9682 19.9028 14.9751 19.9045 14.9811 19.9059C14.987 19.9045 14.9939 19.9028 15.0017 19.9008C15.0628 19.8847 15.1576 19.8534 15.2919 19.7964C15.4228 19.7409 15.5607 19.6749 15.7288 19.5917C15.7287 19.5918 15.7291 19.5916 15.7288 19.5917L15.8211 19.546C15.9543 19.4798 16.1319 19.3917 16.297 19.3182C16.6269 19.1712 16.8355 18.9517 16.9648 18.7429C17.0309 18.6362 17.0728 18.5375 17.0963 18.4637C17.1014 18.4475 17.1053 18.4339 17.1081 18.423H12.854C12.8567 18.4339 12.8607 18.4475 12.8658 18.4637C12.8893 18.5375 12.9311 18.6362 12.9973 18.7429C13.1267 18.9517 13.3352 19.1712 13.6652 19.3182ZM11.5088 17.0837H18.4533V18.431C18.4533 18.8708 18.0572 20.0004 16.8418 20.5417C16.7027 20.6035 16.5463 20.6812 16.4058 20.751L16.3231 20.7919C16.1504 20.8773 15.9834 20.958 15.8144 21.0296C15.462 21.1789 15.187 21.2502 14.9811 21.2502C14.775 21.2502 14.5002 21.1789 14.1477 21.0296C13.9787 20.958 13.8116 20.8773 13.639 20.7919L13.5563 20.751C13.4158 20.6812 13.2594 20.6035 13.1203 20.5417C11.905 20.0004 11.5088 18.8708 11.5088 18.431V17.0837ZM11.5088 15.6947V13.6113H18.4533V15.6947H11.5088Z" fill="#2EAD9F"/>
<path fill-rule="evenodd" clip-rule="evenodd" d="M10.8006 20.3467C9.72319 21.2845 9.12988 22.4638 9.12988 24.0202C9.12988 24.6409 9.26265 25.5724 9.60775 26.3273C9.96114 27.1003 10.4356 27.4997 11.0353 27.4997C11.6787 27.4997 12.2234 27.0073 12.2234 26.3735C12.2234 26.0916 12.1041 25.825 11.9153 25.4287L11.9029 25.4024C11.7318 25.0439 11.5061 24.5705 11.5061 24.0202C11.5061 23.4182 11.8046 22.7793 12.152 22.2621C12.2635 22.0962 12.3814 21.9611 12.5047 21.8446C11.6837 21.4714 11.1323 20.9074 10.8006 20.3467Z" fill="#2EAD9F"/>
<path fill-rule="evenodd" clip-rule="evenodd" d="M11.7565 22.9712C11.6055 23.3128 11.5061 23.6726 11.5061 24.0202C11.5061 24.5705 11.7318 25.0439 11.9029 25.4024L11.9153 25.4287C12.1041 25.825 12.2234 26.0916 12.2234 26.3735C12.2234 27.0073 11.6787 27.4997 11.0353 27.4997C10.4356 27.4997 9.96114 27.1003 9.60775 26.3273C9.26265 25.5724 9.12988 24.6409 9.12988 24.0202C9.12988 22.9889 9.39042 22.1231 9.87971 21.3835C10.1287 21.007 10.4371 20.663 10.8006 20.3467C10.9484 20.5965 11.1398 20.847 11.3793 21.081C11.4623 21.1621 11.5512 21.2413 11.646 21.3178C11.8912 21.5156 12.1763 21.6954 12.5047 21.8446C12.3814 21.9611 12.2635 22.0962 12.152 22.2621C12.0052 22.4807 11.8671 22.7211 11.7565 22.9712Z" fill="#2EAD9F"/>
<path fill-rule="evenodd" clip-rule="evenodd" d="M17.457 21.8446C18.2779 21.4714 18.8294 20.9074 19.1611 20.3467C20.2385 21.2845 20.8318 22.4638 20.8318 24.0201C20.8318 24.6409 20.699 25.5724 20.3539 26.3273C20.0005 27.1003 19.526 27.4997 18.9263 27.4997C18.2829 27.4997 17.7382 27.0073 17.7382 26.3734C17.7382 26.0916 17.8576 25.8249 18.0463 25.4286L18.0588 25.4024C18.2298 25.0438 18.4556 24.5704 18.4556 24.0201C18.4556 23.4181 18.157 22.7793 17.8097 22.2621C17.6982 22.0961 17.5802 21.9611 17.457 21.8446Z" fill="#2EAD9F"/>
<path fill-rule="evenodd" clip-rule="evenodd" d="M18.3158 21.3178C18.0705 21.5156 17.7853 21.6954 17.457 21.8446C17.5802 21.9611 17.6982 22.0961 17.8097 22.2621C17.9565 22.4806 18.0946 22.721 18.2052 22.9712C18.3561 23.3128 18.4556 23.6726 18.4556 24.0201C18.4556 24.5704 18.2298 25.0438 18.0588 25.4024L18.0463 25.4286C17.8576 25.8249 17.7382 26.0916 17.7382 26.3734C17.7382 27.0073 18.2829 27.4997 18.9263 27.4997C19.526 27.4997 20.0005 27.1003 20.3539 26.3273C20.699 25.5724 20.8318 24.6409 20.8318 24.0201C20.8318 22.9888 20.5713 22.1231 20.0821 21.3835C19.8329 21.007 19.5246 20.6631 19.1611 20.3467C19.0133 20.5965 18.8219 20.847 18.5824 21.081C18.4994 21.1621 18.4105 21.2413 18.3158 21.3178Z" fill="#2EAD9F"/>
<path fill-rule="evenodd" clip-rule="evenodd" d="M23.6586 11.4374C23.8954 12.3948 23.3113 13.3629 22.3539 13.5997C19.5586 14.2912 17.2873 14.643 14.9737 14.6342C12.6651 14.6254 10.4007 14.2577 7.62675 13.6044C6.66683 13.3783 6.07182 12.4168 6.29798 11.4569C6.52406 10.4969 7.4855 9.90196 8.44551 10.128C11.0956 10.7522 13.0634 11.0554 14.9873 11.0627C16.906 11.07 18.8671 10.7831 21.4963 10.1328C22.4537 9.89589 23.4217 10.48 23.6586 11.4374Z" fill="#2EAD9F"/>
</svg>
