<svg width="75" height="75" viewBox="0 0 75 75" fill="none" xmlns="http://www.w3.org/2000/svg">
<rect x="1.09277" y="1.21094" width="72.8042" height="72.8042" rx="7.5" stroke="#222222" stroke-dasharray="2 2"/>
<path fill-rule="evenodd" clip-rule="evenodd" d="M35.5301 19.4109C35.5301 18.6316 36.1619 18 36.9409 18H42.574C43.3532 18 43.9849 18.6316 43.9849 19.4109V21.3099C44.0122 21.3343 44.0403 21.3596 44.069 21.3858C44.3305 21.6252 44.6423 21.9425 44.975 22.3473C47.3525 21.9281 50.2225 22.1659 53.6448 23.4312L54.9297 23.9062L54.4928 25.2045C54.178 26.1397 53.8316 26.8826 53.5163 27.5588L53.5078 27.5771C53.1884 28.262 52.9011 28.8804 52.6397 29.6575L52.1304 31.1706L51.0231 30.6384C55.6174 34.9693 54.447 41.4958 51.577 46.4595C50.0814 49.0462 48.0406 51.398 45.8057 53.1166C43.5935 54.8178 41.055 56 38.5776 56C36.0919 56 33.6135 54.8101 31.4786 53.1155C29.3236 51.4052 27.3852 49.0787 25.9607 46.5549C24.5401 44.0381 23.5818 41.2376 23.4921 38.5695C23.4396 37.0059 23.6878 35.4649 24.3304 34.0701C24.317 34.0535 24.3026 34.0358 24.2873 34.0173C24.1479 33.8493 23.9331 33.6141 23.6467 33.3667C23.0698 32.8678 22.2456 32.3546 21.1877 32.1852C20.8114 32.1248 20.4756 31.915 20.2565 31.6032C20.0374 31.2914 19.9538 30.9043 20.0246 30.5298C20.4962 28.0362 20.9222 26.5543 21.2519 25.6674C21.4174 25.2224 21.565 24.9102 21.6921 24.6868C21.7562 24.5744 21.8175 24.4801 21.8762 24.4007C21.9058 24.3606 21.9352 24.3238 21.9645 24.2897C21.9792 24.2725 21.994 24.2561 22.0088 24.2401L22.0311 24.2167L22.0423 24.2053L22.0479 24.1997L22.0507 24.1968C22.0507 24.1968 22.0536 24.1942 23.0429 25.2C23.4417 23.8467 23.4424 23.8469 23.4424 23.8469L23.4454 23.8478L23.4516 23.8496L23.4715 23.8555L23.5396 23.8766C23.5973 23.8945 23.6793 23.9204 23.7819 23.9544C23.9872 24.0222 24.2765 24.1218 24.6236 24.2526C25.3142 24.5126 26.2499 24.9021 27.2103 25.4162C27.9511 25.8128 28.7391 26.3006 29.4486 26.883L27.9874 24.6321C27.5712 23.991 27.7411 23.1351 28.3706 22.7017L32.8979 19.5847C33.5235 19.1541 34.3775 19.2957 34.8306 19.9052L35.5301 20.8467V19.4109ZM28.6006 30.0449C28.462 29.8464 28.2852 29.6401 28.0659 29.4269C27.4854 28.8624 26.7065 28.3472 25.8786 27.904C25.1287 27.5026 24.3823 27.1834 23.7895 26.9544C23.5947 27.5331 23.3423 28.4256 23.0543 29.7737C24.0841 30.1576 24.8987 30.7189 25.4924 31.2321C25.6338 31.3543 25.7639 31.475 25.8825 31.5911C26.0122 31.5066 26.1516 31.4173 26.3 31.3244C26.3859 31.2707 26.4751 31.2155 26.5672 31.1593C27.156 30.6791 27.8046 30.3372 28.4815 30.1032C28.521 30.0837 28.5606 30.0642 28.6006 30.0449ZM28.2227 33.4561C28.624 33.2165 29.0745 32.964 29.5562 32.7205C30.0545 32.5682 30.6238 32.4923 31.2622 32.4901C32.5541 32.4856 33.9949 32.7861 35.3864 33.2237C36.7673 33.658 38.0346 34.2065 38.962 34.6503C39.0386 34.6869 39.113 34.7228 39.1845 34.7578L38.3281 37.8322L35.2452 39.2264L31.6063 38.369L30.9593 41.1156L33.4767 41.7087L32.6769 43.7305L35.3007 44.7685L36.4909 41.7599L37.3411 41.3755L37.2774 41.6043L38.5681 44.5873L38.8167 48.2308L41.6318 48.0387L41.4583 45.4958L44.1518 45.1831L43.8264 42.3801L40.8378 42.7271L40.2635 41.3999L41.9034 35.5129L42.0102 35.3383L42.2129 35.0989L42.2182 35.0929L42.2399 35.0675C42.2599 35.0442 42.291 35.0085 42.3322 34.9619C42.4143 34.8685 42.5366 34.732 42.6919 34.5642C43.0035 34.2277 43.4435 33.7707 43.9572 33.2888C44.8387 32.4621 45.8201 31.675 46.6854 31.2265C47.0331 31.4137 47.3259 31.5571 47.5673 31.6752C47.6739 31.7272 47.7704 31.7745 47.857 31.8184C48.2261 32.0052 48.5022 32.168 48.9023 32.5224C52.2227 35.4636 51.8475 40.3546 49.1343 45.0471C47.8128 47.3325 46.0119 49.3985 44.0856 50.8798C42.1368 52.3784 40.1947 53.1783 38.5776 53.1783C36.9686 53.1783 35.0964 52.3845 33.2327 50.9053C31.389 49.442 29.6806 47.4045 28.418 45.1679C27.1516 42.924 26.3825 40.5672 26.3123 38.4747C26.2434 36.4249 26.8383 34.6995 28.2227 33.4561ZM24.4643 34.2473L24.466 34.2499L24.4643 34.2473ZM24.4643 34.2473L24.466 34.2499C24.6802 34.5748 25.0185 34.7961 25.402 34.8627C25.7884 34.9299 26.1854 34.8331 26.4975 34.5957M40.6905 32.2499C40.7287 32.2 40.7682 32.1488 40.809 32.0966C41.3687 31.3793 42.1887 30.4368 43.2137 29.5748C44.9458 28.1181 47.5341 26.6905 50.4818 27.417C50.6377 27.0554 50.7933 26.7216 50.942 26.4027L50.9503 26.3847C51.0714 26.1254 51.1876 25.8755 51.2997 25.6229C46.4925 24.2071 43.4856 25.3434 41.6043 26.8992C40.0058 28.2213 39.0843 29.9609 38.6343 31.1478C39.2625 31.4714 39.8813 31.805 40.4 32.0897C40.5006 32.145 40.5976 32.1986 40.6905 32.2499ZM41.768 23.1488C41.3901 22.886 41.1631 22.454 41.1631 21.9909V20.8217H38.3518V22.5279C38.3518 22.8153 38.2641 23.0959 38.1003 23.332L37.1737 24.6679C36.9148 25.0412 36.4919 25.2671 36.0376 25.2745C35.5831 25.2819 35.1531 25.07 34.8821 24.7053L33.3774 22.6806L31.1018 24.2472L32.4705 26.3555C32.7653 26.8098 32.7673 27.3765 32.5125 27.8233C32.5057 27.8497 32.4968 27.8875 32.4867 27.9386C32.4367 28.1914 32.3728 28.6789 32.3443 29.5502C32.5163 29.5748 32.7013 29.5776 33.061 29.5776C33.7124 29.5776 34.5679 29.5807 35.9947 29.817C36.6524 28.182 37.725 26.5953 38.9346 25.3357C39.7513 24.4854 40.7242 23.6884 41.768 23.1488ZM23.0429 25.2L23.4424 23.8469C22.9509 23.702 22.4188 23.8348 22.0536 24.1942L23.0429 25.2Z" fill="black"/>
</svg>
