<svg width="75" height="75" viewBox="0 0 75 75" fill="none" xmlns="http://www.w3.org/2000/svg">
<rect x="1.09229" y="1.21094" width="72.8042" height="72.8042" rx="7.5" stroke="#222222" stroke-dasharray="2 2"/>
<path d="M18.25 56.945V41.4673C18.25 40.5221 18.5799 39.7195 19.2396 39.0596C19.8979 38.3997 20.6896 38.0697 21.6146 38.0697H31.7917V40.167C31.7917 41.6239 32.2979 42.8612 33.3104 43.8791C34.3215 44.8998 35.55 45.4101 36.9958 45.4101C38.4417 45.4101 39.6715 44.8998 40.6854 43.8791C41.6993 42.8584 42.2069 41.6211 42.2083 40.167V38.0697H52.3854C53.3104 38.0697 54.1021 38.4018 54.7604 39.0659C55.4187 39.73 55.7486 40.527 55.75 41.4568V56.945H18.25ZM37 41.2156C36.7042 41.2156 36.4562 41.1149 36.2562 40.9136C36.0562 40.7122 35.9569 40.4634 35.9583 40.167C35.9583 36.5303 36.3722 32.944 37.2 29.408C38.0278 25.872 39.8069 22.9114 42.5375 20.5261C42.7736 20.3569 43.0299 20.2779 43.3062 20.2891C43.5812 20.3017 43.8167 20.4206 44.0125 20.6457C44.2069 20.8722 44.291 21.1308 44.2646 21.4216C44.2382 21.7125 44.1069 21.9425 43.8708 22.1116C41.3333 24.2802 39.7271 26.9913 39.0521 30.2448C38.3785 33.497 38.0417 36.8044 38.0417 40.167C38.0417 40.4648 37.9417 40.7136 37.7417 40.9136C37.5417 41.1135 37.2937 41.2142 36.9979 41.2156M23.9729 47.3459C24.3757 47.3459 24.7111 47.2131 24.9792 46.9474C25.2472 46.6818 25.3812 46.3462 25.3812 45.9407C25.3812 45.5353 25.2493 45.1976 24.9854 44.9277C24.7215 44.6579 24.3882 44.523 23.9854 44.523C23.5826 44.523 23.2472 44.6558 22.9792 44.9215C22.7111 45.1871 22.5771 45.5227 22.5771 45.9281C22.5771 46.3336 22.709 46.6713 22.9729 46.9411C23.2368 47.211 23.5701 47.3459 23.9729 47.3459ZM26.0563 52.589C26.459 52.589 26.7944 52.4562 27.0625 52.1906C27.3306 51.9249 27.4646 51.5893 27.4646 51.1839C27.4646 50.7784 27.3326 50.4407 27.0687 50.1709C26.8049 49.901 26.4715 49.7661 26.0687 49.7661C25.666 49.7661 25.3306 49.899 25.0625 50.1646C24.7944 50.4303 24.6604 50.7658 24.6604 51.1713C24.6604 51.5768 24.7924 51.9144 25.0563 52.1843C25.3201 52.4541 25.6535 52.589 26.0563 52.589ZM50.0146 47.3459C50.4174 47.3459 50.7528 47.2131 51.0208 46.9474C51.2889 46.6818 51.4229 46.3462 51.4229 45.9407C51.4229 45.5353 51.291 45.1976 51.0271 44.9277C50.7632 44.6579 50.4299 44.523 50.0271 44.523C49.6243 44.523 49.2889 44.6558 49.0208 44.9215C48.7528 45.1871 48.6187 45.5227 48.6187 45.9281C48.6187 46.3336 48.7507 46.6713 49.0146 46.9411C49.2785 47.211 49.6118 47.3459 50.0146 47.3459Z" fill="#222222"/>
</svg>
