<svg width="75" height="75" viewBox="0 0 75 75" fill="none" xmlns="http://www.w3.org/2000/svg">
<rect x="1.09229" y="1.21094" width="72.8042" height="72.8042" rx="7.5" stroke="#222222" stroke-dasharray="2 2"/>
<path fill-rule="evenodd" clip-rule="evenodd" d="M42.2532 35.1836C42.2502 35.1868 42.2472 35.1901 42.2441 35.1934C42.2433 35.1943 42.2441 35.1935 42.2441 35.1934C42.2445 35.193 42.2453 35.192 42.2458 35.1916L42.2491 35.188L42.2513 35.1856L42.2532 35.1836ZM41.3751 34.3787C40.4965 33.5745 40.4967 33.5741 40.4971 33.5738L40.4994 33.5713L40.5028 33.5676L40.5108 33.559L40.532 33.5364C40.5484 33.5193 40.5694 33.4978 40.5951 33.4725C40.6461 33.4222 40.7157 33.3569 40.8034 33.2817C40.9782 33.1319 41.2284 32.94 41.5502 32.7499C42.1946 32.3693 43.1425 31.9878 44.3439 31.9878C46.507 31.9878 48.5001 33.7939 48.5001 36.8293C48.5001 39.3791 47.3649 41.1728 46.066 42.3054C45.4256 42.8639 44.7456 43.2633 44.1374 43.5259C43.557 43.7765 42.95 43.9422 42.4547 43.9422C41.7988 43.9422 41.2672 43.407 41.2672 42.7467C41.2672 42.0865 41.7988 41.5513 42.4547 41.5513C42.4543 41.5513 42.4543 41.5513 42.4547 41.5513C42.4572 41.5512 42.4764 41.5505 42.5144 41.5448C42.5566 41.5386 42.6129 41.5276 42.6826 41.5099C42.8228 41.4743 42.9998 41.4156 43.201 41.3287C43.6048 41.1543 44.0718 40.8813 44.511 40.4984C45.3712 39.7481 46.1251 38.5831 46.1251 36.8293C46.1251 34.9635 45.0503 34.3787 44.3439 34.3787C43.6561 34.3787 43.1196 34.5949 42.7519 34.812C42.5677 34.9208 42.4299 35.0277 42.3433 35.102C42.3002 35.139 42.2707 35.1669 42.2554 35.182L42.2441 35.1934C41.8018 35.6718 41.0581 35.7042 40.5763 35.2632C40.0911 34.8191 40.0559 34.0622 40.4971 33.5738L41.3751 34.3787Z" fill="#222222"/>
<path d="M32.4687 35.5737C27.125 35.5737 23.5625 40.3555 23.5625 42.7464C24.025 42.7794 24.75 42.7464 24.75 42.7464C24.75 42.7464 26.4898 39.7578 30.6875 39.7578C33.1105 39.7578 35.2302 40.7607 36.145 42.2666C36.5834 42.9881 35.7671 43.6285 34.9525 43.4213C32.8489 42.8865 29.1257 42.337 25.9375 43.9418V46.3327C28.147 45.0617 31.0276 45.3109 33.2414 45.8233C35.3559 46.3126 36.625 48.3326 36.625 50.5167V55.8962H39.6904V44.7188C39.6904 41.5054 40.8628 40.7318 43.0244 39.1133C43.4478 38.7964 43.5796 38.2194 43.3436 37.7443C42.9812 37.0145 41.9571 36.9072 41.2736 37.3456C40.6108 37.7705 39.7347 38.114 38.641 38.114C37.2187 38.114 35.8238 35.5737 32.4687 35.5737Z" fill="#222222"/>
<path fill-rule="evenodd" clip-rule="evenodd" d="M33.0625 51.1146C33.0625 49.7941 31.9992 48.7237 30.6875 48.7237H28.3125C27.939 48.7237 27.7396 48.6481 27.6424 48.5975C27.5432 48.5461 27.4633 48.4753 27.3899 48.3728C27.3102 48.2615 27.2393 48.1121 27.1895 47.9362C27.1386 47.7569 27.125 47.6043 27.125 47.5283V43.942C27.125 42.7287 26.2222 41.7078 25.0251 41.5672L24.75 43.942V47.5283C24.75 48.7237 25.4625 51.1146 28.3125 51.1146H30.6875V58.2872H47.3125V48.8017C47.3125 46.5003 48.4976 44.4113 49.994 42.6715C51.1779 41.2948 52.0973 39.7232 52.6313 38.0409C53.5208 35.2384 53.4496 32.2465 52.4275 29.4836C51.4054 26.7206 49.4835 24.3246 46.9303 22.6302C44.3772 20.9359 41.3205 20.028 38.1871 20.0332C34.9493 20.0565 31.804 21.0435 29.2093 22.8504C26.6145 24.6572 24.7058 27.1896 23.7613 30.0787C23.4564 31.1527 23.1178 34.3117 23.1178 34.3117C22.576 35.67 22.0003 36.9967 21.4246 38.3235L20.6119 40.2505C20.3086 40.7724 20.1025 41.3384 20.0024 41.9247C19.9803 42.314 20.1134 42.6971 20.3759 43.0003C20.6385 43.3036 21.0121 43.5055 21.4246 43.5673C21.5601 43.5673 24.75 43.942 24.75 43.942C25.0251 41.5672 25.0252 41.5672 25.0251 41.5672L24.5227 41.5084C24.2208 41.4733 23.8165 41.4263 23.4076 41.3792C23.1832 41.3535 22.9565 41.3276 22.7442 41.3035C22.7632 41.2644 22.7811 41.2249 22.798 41.1849L23.6059 39.2691L23.6076 39.2655C24.1789 37.9487 24.7666 36.5943 25.3218 35.2026C25.4027 34.9994 25.4557 34.786 25.4791 34.5683L25.4792 34.567L25.4824 34.5371L25.4931 34.4403C25.5026 34.3554 25.5165 34.232 25.5342 34.0802C25.5697 33.7759 25.6201 33.3607 25.6793 32.9149C25.8031 31.9834 25.9388 31.137 26.0341 30.7745C26.8155 28.4239 28.3867 26.3302 30.5603 24.8167C32.7503 23.2917 35.4257 22.4454 38.1977 22.4241C40.8748 22.4209 43.4709 23.1981 45.6231 24.6265C47.7752 26.0545 49.3638 28.0526 50.2018 30.3179C51.0387 32.5802 51.0962 35.022 50.369 37.3132C49.9443 38.651 49.1986 39.9436 48.1985 41.1065C46.5389 43.0361 44.9375 45.6683 44.9375 48.8017V55.8964H33.0625V51.1146Z" fill="#222222"/>
</svg>
