<svg width="75" height="75" viewBox="0 0 75 75" fill="none" xmlns="http://www.w3.org/2000/svg">
<rect x="1.09277" y="1.21094" width="72.8042" height="72.8042" rx="7.5" stroke="#222222" stroke-dasharray="2 2"/>
<path fill-rule="evenodd" clip-rule="evenodd" d="M29.7548 22.04C29.7548 22.2143 29.7556 26.1225 29.7571 26.2788C29.7935 30.2044 30.2983 32.1288 31.2897 33.1572C32.1605 34.0606 33.6285 34.4978 36.3853 34.5798C36.6035 32.3646 37.4811 30.597 38.7707 29.3377C40.2549 27.8885 42.2205 27.1762 44.1659 27.1762C46.1114 27.1762 48.0768 27.8885 49.5612 29.3377C51.0581 30.7994 51.9998 32.946 51.9998 35.6824V44.7489C51.9998 47.3112 51.5772 50.0222 50.2679 52.1265C48.9096 54.3094 46.6627 55.7279 43.3397 55.7279C39.9205 55.7279 37.5469 53.6793 35.4496 51.8576L35.3828 51.7995C33.2475 49.9447 31.3275 48.2767 28.6048 47.8981C27.4614 47.9101 26.6667 48.2187 26.0955 48.6398C25.5026 49.077 25.0771 49.6903 24.7761 50.3995C24.1607 51.8494 24.1404 53.52 24.1701 54.2378C24.176 54.3801 24.1791 55.9224 24.1812 57.3717C24.1822 58.1091 24.1831 58.8393 24.1835 59.3852L24.1843 60.2917L22.0224 60.2941L22.0217 59.3872C22.0212 58.8415 22.0204 58.1117 22.0194 57.3748C22.0183 56.6378 22.0169 55.8943 22.0153 55.3211C22.0144 55.0342 22.0136 54.7909 22.0125 54.6126C22.0121 54.5232 22.0115 54.4513 22.011 54.3989C22.0106 54.3634 22.0103 54.3432 22.0102 54.3336C22.0101 54.3266 22.0101 54.3254 22.0102 54.3285C21.9765 53.5146 21.9798 51.4485 22.7882 49.5444C23.1989 48.5767 23.8352 47.6089 24.8181 46.8841C25.8115 46.1517 27.0863 45.7214 28.6739 45.7214C29.1007 45.7214 29.4953 45.7311 29.8704 45.7402C30.5534 45.7569 31.1717 45.772 31.8021 45.7244C32.7223 45.655 33.4455 45.4555 34.0337 45.0116C35.1433 44.1744 36.1972 42.1228 36.3202 36.7559C33.4582 36.6736 31.2257 36.2158 29.7383 34.6729C28.0846 32.9574 27.6314 30.1852 27.5954 26.2991C27.5938 26.1293 27.593 22.2028 27.593 22.04H29.7548ZM33.6067 47.6101C34.7302 48.355 35.7206 49.2168 36.6424 50.019C36.716 50.083 36.7891 50.1468 36.8619 50.2099C39.0349 52.0973 40.8321 53.5516 43.3397 53.5516C45.9434 53.5516 47.486 52.4975 48.4357 50.9712C49.4343 49.3666 49.838 47.1322 49.838 44.7489V35.6824C49.838 33.4734 49.0914 31.9109 48.056 30.8999C47.0079 29.8765 45.5969 29.3524 44.1659 29.3524C42.735 29.3524 41.324 29.8765 40.2759 30.8999C39.2405 31.9109 38.4939 33.4734 38.4939 35.6824C38.4939 41.8735 37.4268 45.1711 35.3303 46.753C34.7839 47.1654 34.2 47.4347 33.6067 47.6101Z" fill="#222222"/>
<path d="M50.9188 41.8643C46.0062 46.1471 43.1405 37.5815 36.9999 41.8643L35.3623 45.1612L31.2686 47.2218C31.2686 47.2218 39.0468 54.6399 43.55 54.6399C48.0532 54.6399 51.7376 50.5188 50.9188 41.8643Z" fill="#222222"/>
</svg>
