<svg width="75" height="75" viewBox="0 0 75 75" fill="none" xmlns="http://www.w3.org/2000/svg">
<rect x="1.09277" y="1.21094" width="72.8042" height="72.8042" rx="7.5" stroke="#222222" stroke-dasharray="2 2"/>
<path d="M19.1003 27.3428C18.2664 28.1067 18.0049 29.0384 18.5166 29.8642C19.1792 30.9336 19.9347 31.8366 20.6037 32.5351C20.0291 32.5818 19.5205 32.7831 19.1423 33.15C18.9924 33.2955 18.8704 33.4599 18.7754 33.6393C18.1134 32.9136 17.3956 32.0177 16.7489 30.9742C15.4972 28.9541 16.4536 26.9316 17.6981 25.7916C18.3313 25.2115 19.1143 24.7709 19.9121 24.584C20.7002 24.3995 21.6443 24.4385 22.3988 25.0474C24.044 26.375 24.8833 26.5509 25.4383 26.5997C25.5421 26.6088 25.6615 26.6114 25.7945 26.6143C26.3823 26.6271 27.2364 26.6457 28.1876 27.2596L27.063 29.0251C26.637 28.7501 26.4361 28.7436 25.9728 28.7289C25.7869 28.7229 25.5588 28.7155 25.2568 28.689C24.1954 28.5956 22.9774 28.2022 21.0958 26.6838C21.0109 26.6153 20.8006 26.5293 20.3843 26.6268C19.9776 26.722 19.5063 26.9708 19.1003 27.3428Z" fill="#222222"/>
<path fill-rule="evenodd" clip-rule="evenodd" d="M25.4323 35.122C27.1826 36.7463 27.6708 38.966 26.5226 40.0801C25.3745 41.194 23.0247 40.7806 21.2743 39.1563C19.5239 37.5322 19.0358 35.3125 20.184 34.1984C21.3321 33.0843 23.6818 33.4979 25.4323 35.122ZM23.9323 36.5775C24.5457 37.1467 24.8663 37.7589 24.9656 38.2105C25.0207 38.4609 25.0009 38.5939 24.9831 38.6515C24.9228 38.6697 24.783 38.6914 24.518 38.6447C24.04 38.5606 23.3878 38.2701 22.7743 37.7009C22.1609 37.1317 21.8403 36.5196 21.741 36.068C21.6859 35.8176 21.7056 35.6845 21.7235 35.627C21.7838 35.6087 21.9235 35.587 22.1886 35.6337C22.6666 35.7178 23.3188 36.0082 23.9323 36.5775ZM24.9677 38.6859C24.9672 38.6868 24.9671 38.6872 24.9672 38.6873C24.9675 38.6875 24.9696 38.6847 24.9727 38.6785C24.9718 38.6795 24.9711 38.6805 24.9705 38.6813C24.9703 38.6816 24.9707 38.6811 24.9705 38.6813C24.9695 38.683 24.9681 38.6851 24.9677 38.6859ZM25.0112 38.641C25.0171 38.6368 25.0203 38.6353 25.0204 38.6356C25.0206 38.6359 25.0178 38.638 25.0112 38.641ZM21.7363 35.5967C21.7388 35.5932 21.7397 35.5913 21.7394 35.5912C21.7391 35.591 21.737 35.5938 21.7339 35.6C21.7348 35.5988 21.7357 35.5977 21.7363 35.5967ZM21.6953 35.6374C21.6895 35.6416 21.6863 35.6431 21.6861 35.6429C21.686 35.6426 21.6888 35.6405 21.6953 35.6374Z" fill="#222222"/>
<path d="M55.4835 29.8642C55.9952 29.0384 55.7338 28.1067 54.8998 27.3428C54.4939 26.9708 54.0225 26.722 53.6158 26.6268C53.1995 26.5293 52.9892 26.6153 52.9044 26.6838C51.0227 28.2022 49.8047 28.5956 48.7433 28.689C48.4414 28.7155 48.2132 28.7229 48.0273 28.7289C47.5641 28.7436 47.3631 28.7501 46.9371 29.0251L45.8125 27.2596C46.7638 26.6457 47.6178 26.6271 48.2056 26.6143C48.3386 26.6114 48.458 26.6088 48.5619 26.5997C49.1169 26.5509 49.9561 26.375 51.6014 25.0474C52.3558 24.4385 53.3 24.3995 54.088 24.584C54.8858 24.7709 55.6688 25.2115 56.302 25.7916C57.5465 26.9316 58.5029 28.9541 57.2513 30.9742C56.5909 32.0397 55.8565 32.9513 55.183 33.6848C55.085 33.4876 54.9552 33.3077 54.7927 33.15C54.4277 32.7959 53.9413 32.5961 53.3911 32.5405C54.0615 31.8413 54.8192 30.9364 55.4835 29.8642Z" fill="#222222"/>
<path fill-rule="evenodd" clip-rule="evenodd" d="M48.5028 35.122C46.7525 36.7463 46.2643 38.966 47.4125 40.0801C48.5606 41.194 50.9104 40.7806 52.6607 39.1563C54.4111 37.5322 54.8993 35.3125 53.7511 34.1984C52.6029 33.0843 50.2532 33.4979 48.5028 35.122ZM50.0028 36.5775C49.3894 37.1467 49.0687 37.7589 48.9695 38.2105C48.9144 38.4609 48.9342 38.5939 48.952 38.6515C49.0123 38.6697 49.1521 38.6914 49.4171 38.6447C49.8951 38.5606 50.5473 38.2701 51.1607 37.7009C51.7742 37.1317 52.0948 36.5196 52.194 36.068C52.2492 35.8176 52.2295 35.6845 52.2115 35.627C52.1512 35.6087 52.0115 35.587 51.7464 35.6337C51.2684 35.7178 50.6162 36.0082 50.0028 36.5775ZM48.9646 38.6813C48.9672 38.6851 48.9681 38.6872 48.9679 38.6873C48.9676 38.6875 48.9655 38.6847 48.9624 38.6785C48.9632 38.6795 48.9639 38.6805 48.9646 38.6813ZM48.9193 38.6379L48.9238 38.641L48.9207 38.6395L48.917 38.6374C48.9153 38.6364 48.9146 38.6357 48.9147 38.6356M48.9193 38.6379L48.9158 38.6359L48.9193 38.6379ZM52.1956 35.5912C52.1953 35.5913 52.1969 35.5945 52.2011 35.6C52.1981 35.5938 52.1959 35.591 52.1956 35.5912ZM52.2398 35.6374C52.2455 35.6416 52.2487 35.6431 52.2489 35.6429C52.2492 35.6426 52.2462 35.6405 52.2398 35.6374Z" fill="#222222"/>
<path fill-rule="evenodd" clip-rule="evenodd" d="M30.7625 27.0812C32.1414 26.0782 34.1854 25.5352 37.0109 25.5352C39.8213 25.5352 41.8641 26.0301 43.2422 26.9654C44.6793 27.9407 45.2859 29.3219 45.3309 30.7658C45.3742 32.1536 44.9039 33.5663 44.2862 34.7723C43.6631 35.989 42.8425 37.0881 42.0701 37.8695C41.5918 38.3534 41.2469 39.1564 41.0351 40.3217C40.826 41.4729 40.7699 42.8367 40.7565 44.3152C40.7523 44.7789 40.7523 45.2574 40.7524 45.7411V45.7422C40.7526 46.7624 40.7527 47.8063 40.7128 48.784C40.6539 50.2292 40.5053 51.6682 40.0944 52.8727C40.0168 53.1 39.8547 53.4425 39.4949 53.6636C39.0911 53.912 38.6773 53.8665 38.4072 53.7748C38.1619 53.6915 37.9662 53.5514 37.8417 53.4527C37.7067 53.3457 37.5795 53.2251 37.4734 53.1205C37.3874 53.0358 37.3142 52.9616 37.2482 52.8943C37.1521 52.7969 37.0711 52.7146 36.9876 52.6378C36.8794 52.7238 36.7828 52.8092 36.6697 52.9092C36.5824 52.9863 36.4854 53.0721 36.3657 53.1735C36.1611 53.3468 35.7818 53.6646 35.3526 53.7889C35.0996 53.8622 34.7175 53.9018 34.3306 53.6956C33.9537 53.4949 33.7619 53.1614 33.6646 52.9006C33.2213 51.712 32.991 50.243 32.8466 48.7461C32.7292 47.5285 32.6638 46.2298 32.6009 44.9797L32.6008 44.9773C32.586 44.6834 32.5713 44.3915 32.5561 44.1047C32.4751 42.5729 32.3796 41.1685 32.1822 40.0236C31.975 38.8225 31.6914 38.1527 31.4115 37.8695C30.7793 37.23 30.0751 36.1932 29.5428 35.0146C29.0105 33.836 28.6029 32.4118 28.6753 31.0014C28.7499 29.5502 29.3387 28.1167 30.7625 27.0812ZM36.7926 52.479C36.7893 52.4773 36.7888 52.4768 36.7914 52.4782L36.7926 52.479Z" fill="#222222"/>
</svg>
