<svg width="75" height="75" viewBox="0 0 75 75" fill="none" xmlns="http://www.w3.org/2000/svg">
<rect x="1.09229" y="1.21094" width="72.8042" height="72.8042" rx="7.5" stroke="#222222" stroke-dasharray="2 2"/>
<path fill-rule="evenodd" clip-rule="evenodd" d="M43.7136 27.8888C43.108 27.5537 42.6029 27.061 42.2512 26.4622C41.8995 25.8634 41.7141 25.1805 41.7143 24.4848V23.0469H44.2857V24.4848C44.2857 24.8281 44.4212 25.1573 44.6623 25.4C44.9034 25.6428 45.2304 25.7791 45.5714 25.7791H50.7142C51.3961 25.7791 52.0502 26.0518 52.5324 26.5373C53.0146 27.0227 53.2855 27.6812 53.2855 28.3677V40.9223C53.8155 41.2911 54.2485 41.7841 54.5471 42.3588C54.8456 42.9336 55.0009 43.5728 54.9994 44.2214C54.9994 46.401 53.2791 48.1729 51.1423 48.2143V50.9478H54.9994V53.5364H52.2094C52.6282 54.0527 52.8929 54.6781 52.9727 55.3399C53.0525 56.0016 52.9442 56.6726 52.6603 57.2748C52.3764 57.8771 51.9286 58.3859 51.369 58.7421C50.8093 59.0984 50.1607 59.2875 49.4985 59.2875C48.8364 59.2875 48.1878 59.0984 47.6281 58.7421C47.0684 58.3859 46.6207 57.8771 46.3368 57.2748C46.0529 56.6726 45.9446 56.0016 46.0244 55.3399C46.1042 54.6781 46.3689 54.0527 46.7877 53.5364H27.2117C27.6305 54.0527 27.8952 54.6781 27.975 55.3399C28.0548 56.0016 27.9465 56.6726 27.6626 57.2748C27.3787 57.8771 26.9309 58.3859 26.3713 58.7421C25.8116 59.0984 25.163 59.2875 24.5008 59.2875C23.8387 59.2875 23.1901 59.0984 22.6304 58.7421C22.0707 58.3859 21.623 57.8771 21.3391 57.2748C21.0552 56.6726 20.9469 56.0016 21.0267 55.3399C21.1065 54.6781 21.3712 54.0527 21.79 53.5364H19V50.9478H21.5714V40.0719L21.1664 39.6629C20.4184 38.9027 19.9988 37.8759 19.9988 36.8058C19.9988 35.7357 20.4184 34.7089 21.1664 33.9487C21.6241 33.4824 22.1892 33.1373 22.8115 32.9442C23.4338 32.7511 24.0939 32.716 24.7329 32.842L25.5609 32.0085C26.3221 31.2433 27.354 30.8137 28.4298 30.8142C29.5056 30.8147 30.5371 31.2452 31.2976 32.0111L33.0976 33.8231C33.4744 34.2023 33.7732 34.6525 33.9771 35.148C34.1809 35.6435 34.2858 36.1746 34.2857 36.7109C34.2856 37.2473 34.1805 37.7783 33.9764 38.2737C33.7723 38.7691 33.4733 39.2192 33.0963 39.5982L32.7273 39.9697L32.8919 40.1379C32.9498 40.1949 33.0282 40.2285 33.1105 40.2285H50.7142V28.3664H46.285V29.086H46.7131C47.0541 29.086 47.3811 29.2224 47.6222 29.4651C47.8633 29.7078 47.9988 30.037 47.9988 30.3803V35.8448C47.9988 36.1881 47.8633 36.5173 47.6222 36.76C47.3811 37.0027 47.0541 37.1391 46.7131 37.1391H43.2867C42.9457 37.1391 42.6187 37.0027 42.3776 36.76C42.1365 36.5173 42.001 36.1881 42.001 35.8448V30.3803C42.001 30.037 42.1365 29.7078 42.3776 29.4651C42.6187 29.2224 42.9457 29.086 43.2867 29.086H43.7149L43.7136 27.8888ZM30.9145 38.1318L31.2784 37.7655C31.5567 37.4852 31.713 37.1051 31.713 36.7087C31.713 36.3124 31.5567 35.9323 31.2784 35.6519L29.4784 33.8399C29.1999 33.5599 28.8225 33.4025 28.4289 33.4022C28.0353 33.402 27.6577 33.5589 27.3789 33.8386L27.0279 34.192L30.9145 38.1318ZM29.2753 47.8778C29.3793 47.9843 29.5034 48.0689 29.6402 48.1267C29.7771 48.1844 29.924 48.2142 30.0724 48.2143H48.5709V50.9452H24.1428V42.6773L29.2753 47.8778Z" fill="#222222"/>
</svg>
