<svg width="75" height="75" viewBox="0 0 75 75" fill="none" xmlns="http://www.w3.org/2000/svg">
<rect x="1.09277" y="1.21094" width="72.8042" height="72.8042" rx="7.5" stroke="#222222" stroke-dasharray="2 2"/>
<path fill-rule="evenodd" clip-rule="evenodd" d="M42.8171 38.983C44.0248 38.983 45.2045 38.6519 46.2019 38.0331C47.2146 38.6508 48.4098 38.9746 49.6294 38.9617L53.5034 37.6806C54.5951 36.8628 55.3445 35.729 55.6264 34.4691C55.9081 33.2092 55.7051 31.8996 55.0513 30.7594C54.3976 29.6192 53.3327 28.7176 52.035 28.2057C51.7386 26.9858 50.9923 25.8948 49.9197 25.1136L46.138 23.9109H45.7123C44.8711 22.7956 43.6083 22 42.164 21.6754L34.0564 21.2612C32.7086 21.363 31.4378 21.8738 30.4484 22.7115C29.9809 22.6113 29.5024 22.5594 29.0221 22.5567C27.8591 22.5589 26.7216 22.8669 25.747 23.4437C24.7724 24.0204 24.0023 24.8411 23.5297 25.8068L20.4491 27.7899C19.6826 28.7337 19.2699 29.8764 19.272 31.0495C19.2644 31.5399 19.3361 32.0288 19.4848 32.5003C18.6766 33.4534 18.242 34.6246 18.2501 35.8278C18.2482 37.2233 18.8348 38.5664 19.8893 39.5808C19.9744 40.5798 20.3586 41.5388 21.0002 42.3537C21.6419 43.1687 22.5166 43.8087 23.5297 44.2044C24.697 44.8695 25.6854 45.7638 26.4222 46.8217C27.1591 47.8797 27.6255 49.0743 27.7874 50.3176H30.6191V42.1979L27.8672 39.7355L26.0053 41.6099C25.5984 42.0194 24.939 42.0194 24.5321 41.6099C24.1253 41.2004 24.1253 40.5364 24.5321 40.1269L26.7029 37.9416L26.0413 34.279L23.0983 32.7976C22.5837 32.5386 22.3752 31.9087 22.6325 31.3907C22.8898 30.8728 23.5154 30.6627 24.03 30.9217L26.9121 32.3724L30.518 30.0625L29.407 27.0801C29.205 26.5378 29.4779 25.9334 30.0166 25.73C30.5552 25.5266 31.1557 25.8014 31.3577 26.3436L32.5427 29.5248H33.9999L34.6761 28.1632L33.6862 25.838C33.4597 25.3057 33.7046 24.6892 34.2333 24.4611C34.7622 24.2329 35.3746 24.4795 35.6011 25.0118L36.4613 27.0324L39.8985 27.6614C39.9178 27.6433 39.9379 27.6258 39.9588 27.609L42.0896 25.893C42.5388 25.5313 43.1944 25.6046 43.5537 26.0568C43.9131 26.509 43.8402 27.1689 43.391 27.5307L41.858 28.7653L43.6593 31.0965L44.3654 29.6748C44.5419 29.3195 44.9026 29.0951 45.2971 29.0951H47.854C48.4293 29.0951 48.8956 29.5646 48.8956 30.1438C48.8956 30.7229 48.4293 31.1924 47.854 31.1924H45.9409L45.5042 32.0718L47.6537 32.5526C47.7369 32.5712 47.8174 32.6 47.8936 32.6383L49.5981 33.4963C50.1127 33.7553 50.3212 34.3852 50.0641 34.9032C49.8068 35.4212 49.181 35.6311 48.6665 35.3721L47.0767 34.5719L43.3666 33.7419C43.13 33.689 42.9191 33.5546 42.7703 33.3621L40.0317 29.8174L36.6324 29.1953C36.5681 29.2556 36.4954 29.3083 36.4151 29.3516L35.6853 30.821V31.669H37.2005C37.3623 31.669 37.5218 31.707 37.6663 31.7797L41.0755 33.4957C41.59 33.7547 41.7986 34.3845 41.5413 34.9025C41.2841 35.4206 40.6583 35.6305 40.1437 35.3715L36.9546 33.7663H35.6853V35.7212C35.6853 36.3004 35.219 36.7698 34.6436 36.7698C34.0683 36.7698 33.602 36.3004 33.602 35.7212V31.622H31.9641L28.1233 34.0824L28.786 37.7517L32.3528 40.9432C32.5751 41.1422 32.7024 41.4274 32.7024 41.7269V50.3176H35.7411V44.5139C35.7397 43.4835 36.056 42.4732 36.6544 41.5978C37.2526 40.7226 38.1089 40.017 39.126 39.5614C39.698 39.3626 39.8387 39.0949 40.0111 38.7669C40.126 38.5482 40.2551 38.3028 40.5351 38.0331C40.7784 38.184 40.9669 38.3179 41.1304 38.4339C41.6373 38.7937 41.9038 38.983 42.8171 38.983Z" fill="#222222"/>
<path fill-rule="evenodd" clip-rule="evenodd" d="M35.9583 54.8492H27.625V52.751H35.9583V54.8492Z" fill="#222222"/>
<path fill-rule="evenodd" clip-rule="evenodd" d="M35.9583 59.0436H27.625V56.9453H35.9583V59.0436Z" fill="#222222"/>
</svg>
