<svg width="75" height="75" viewBox="0 0 75 75" fill="none" xmlns="http://www.w3.org/2000/svg">
<rect x="1.09277" y="1.21094" width="72.8042" height="72.8042" rx="7.5" stroke="#222222" stroke-dasharray="2 2"/>
<path fill-rule="evenodd" clip-rule="evenodd" d="M28.9938 21.0251C28.1131 20.8602 27.2884 21.5286 27.2884 22.4246C27.2884 23.2055 26.6552 23.8386 25.8744 23.8386H25.4615C24.6543 23.8386 24 24.4929 24 25.3001V26.5774C24 27.3845 24.6543 28.0389 25.4615 28.0389H25.8269C26.634 28.0389 27.2884 28.6932 27.2884 29.5004V30.0529C27.2884 30.7212 27.7439 31.3067 28.3938 31.4626C35.2193 33.1012 39.4023 33.1028 45.9288 31.4706C46.5712 31.31 47.0185 30.7282 47.0185 30.0659V29.5004C47.0185 28.6932 47.6728 28.0389 48.48 28.0389H48.8453C49.6525 28.0389 50.3068 27.3845 50.3068 26.5774V25.3001C50.3068 24.4929 49.6525 23.8386 48.8453 23.8386H48.4306C47.6507 23.8386 47.0185 23.2065 47.0185 22.4267C47.0185 21.5303 46.1924 20.8627 45.3117 21.0289C39.1849 22.1848 35.1196 22.171 28.9938 21.0251ZM32.0382 25.055C32.0382 24.2478 31.3839 23.5935 30.5767 23.5935C29.7695 23.5935 29.1152 24.2478 29.1152 25.055V28.329C29.1152 29.1362 29.7695 29.7905 30.5767 29.7905C31.3839 29.7905 32.0382 29.1362 32.0382 28.329V25.055ZM27.2884 35.578C27.2884 34.682 28.1131 34.0136 28.9938 34.1785C35.1196 35.3244 39.1849 35.3382 45.3117 34.1823C46.1924 34.0161 47.0185 34.6837 47.0185 35.5801C47.0185 36.3599 47.6507 36.992 48.4306 36.992H48.8453C49.6525 36.992 50.3068 37.6463 50.3068 38.4535V39.7308C50.3068 40.5379 49.6525 41.1923 48.8453 41.1923H48.48C47.6728 41.1923 47.0185 41.8466 47.0185 42.6538V43.2193C47.0185 43.8816 46.5712 44.4634 45.9288 44.6241C39.4023 46.2562 35.2193 46.2546 28.3938 44.616C27.7439 44.4601 27.2884 43.8746 27.2884 43.2063V42.6538C27.2884 41.8466 26.634 41.1923 25.8269 41.1923H25.4615C24.6543 41.1923 24 40.5379 24 39.7308V38.4535C24 37.6463 24.6543 36.992 25.4615 36.992H25.8744C26.6552 36.992 27.2884 36.3589 27.2884 35.578ZM30.5767 36.7469C31.3839 36.7469 32.0382 37.4012 32.0382 38.2084V41.4824C32.0382 42.2896 31.3839 42.9439 30.5767 42.9439C29.7695 42.9439 29.1152 42.2896 29.1152 41.4824V38.2084C29.1152 37.4012 29.7695 36.7469 30.5767 36.7469ZM28.9938 47.3319C28.1131 47.167 27.2884 47.8354 27.2884 48.7314C27.2884 49.5123 26.6552 50.1454 25.8744 50.1454H25.4615C24.6543 50.1454 24 50.7997 24 51.6069V52.8842C24 53.6913 24.6543 54.3457 25.4615 54.3457H25.8269C26.634 54.3457 27.2884 55 27.2884 55.8072V56.3597C27.2884 57.028 27.7439 57.6135 28.3938 57.7694C35.2193 59.408 39.4023 59.4096 45.9288 57.7775C46.5712 57.6168 47.0185 57.035 47.0185 56.3727V55.8072C47.0185 55 47.6728 54.3457 48.48 54.3457H48.8453C49.6525 54.3457 50.3068 53.6913 50.3068 52.8842V51.6069C50.3068 50.7997 49.6525 50.1454 48.8453 50.1454H48.4306C47.6507 50.1454 47.0185 49.5133 47.0185 48.7335C47.0185 47.8371 46.1924 47.1695 45.3117 47.3357C39.1849 48.4916 35.1196 48.4779 28.9938 47.3319ZM32.0382 51.3618C32.0382 50.5546 31.3839 49.9003 30.5767 49.9003C29.7695 49.9003 29.1152 50.5546 29.1152 51.3618V54.6358C29.1152 55.443 29.7695 56.0973 30.5767 56.0973C31.3839 56.0973 32.0382 55.443 32.0382 54.6358V51.3618Z" fill="#222222"/>
</svg>
